<svg width="250" height="220" viewBox="0 0 250 220" fill="none" xmlns="http://www.w3.org/2000/svg">
<g clip-path="url(#clip0)">
<g opacity="0.3">
<path style="mix-blend-mode:multiply" d="M125 220.007C168.398 220.007 203.579 217.086 203.579 213.484C203.579 209.882 168.398 206.961 125 206.961C81.6019 206.961 46.4208 209.882 46.4208 213.484C46.4208 217.086 81.6019 220.007 125 220.007Z" fill="url(#paint0_radial)"/>
</g>
<path d="M208.96 62.8265C208.207 61.4092 207.739 59.8566 207.582 58.2574C207.426 56.6582 207.584 55.0436 208.049 53.506C208.513 51.9684 209.274 50.5378 210.289 49.296C211.303 48.0541 212.551 47.0254 213.961 46.2685L191.72 4.43316C190.42 1.98776 187.38 1.06493 184.94 2.37503L4.38559 99.3193C1.96034 100.622 1.04381 103.639 2.33517 106.07L24.5706 147.929C25.9803 147.172 27.5246 146.702 29.1152 146.545C30.7058 146.387 32.3116 146.547 33.841 147.014C35.3703 147.481 36.7931 148.246 38.0283 149.266C39.2635 150.285 40.2869 151.54 41.0399 152.957C41.7929 154.374 42.2609 155.927 42.4171 157.526C42.5734 159.125 42.4148 160.74 41.9504 162.277C41.486 163.815 40.725 165.245 39.7107 166.487C38.6965 167.729 37.4488 168.758 36.0391 169.515L58.2536 211.335C59.5531 213.781 62.594 214.705 65.0346 213.394L249.973 114.096L225.403 67.8408C222.56 69.3629 219.233 69.6898 216.151 68.7499C213.069 67.81 210.483 65.6799 208.96 62.8265Z" fill="#EC1654"/>
<path d="M195.365 22.3634L192.551 17.0675L186.436 20.3523L185.679 18.9266C184.379 16.4811 181.339 15.5578 178.899 16.8675L19.7567 102.282C17.3306 103.584 16.4139 106.603 17.7061 109.034L18.483 110.496L12.3687 113.781L15.1824 119.077L21.2967 115.792L24.2506 121.356L18.1362 124.641L20.95 129.937L27.0643 126.652L30.0048 132.209L23.8905 135.494L26.6976 140.79L32.8186 137.512V137.472C36.8995 135.36 41.6428 134.947 46.0239 136.322C50.4049 137.698 54.0721 140.75 56.2332 144.821C58.3943 148.892 58.8758 153.654 57.5738 158.079C56.2718 162.503 53.2907 166.236 49.2746 168.469L49.2345 168.402L43.1202 171.687L45.934 176.983L52.0483 173.698L55.0021 179.255L48.8878 182.54L51.7016 187.836L57.8159 184.551L60.7697 190.115L54.6754 193.4L57.4892 198.696L63.6035 195.411L64.3755 196.866C65.6744 199.313 68.7159 200.238 71.1572 198.927L234.631 111.16L231.497 105.261L237.618 101.982L234.804 96.6866L228.703 99.9647L225.749 94.4073L231.864 91.1226L229.037 85.8066L222.922 89.0914L219.969 83.5273L226.083 80.2493L223.269 74.9534L217.155 78.2315L217.188 78.2985C213.116 80.3551 208.407 80.7316 204.063 79.3477C199.72 77.9638 196.085 74.929 193.935 70.8902C191.785 66.8513 191.288 62.1277 192.552 57.7263C193.815 53.3248 196.739 49.5935 200.699 47.3277V47.3612L206.82 44.0764L204.033 38.7806L197.912 42.0653L194.958 36.508L201.079 33.2233L198.265 27.9274L192.151 31.2122L189.197 25.6481L195.365 22.3634Z" fill="#BC1948"/>
<path d="M187.79 48.0919L177.122 27.981L29.9581 106.97L40.6265 127.081C51.7816 121.088 60.0296 128.348 65.9639 139.563C71.8982 150.778 73.3317 161.685 62.1766 167.718L72.845 187.829L220.035 108.827L209.367 88.7159C198.212 94.709 189.964 87.4489 184.029 76.2337C178.095 65.0186 176.628 54.0782 187.79 48.0919Z" fill="#F1F1F2"/>
<path d="M85.4236 85.9067L82.4827 87.4854L118.766 155.804L121.707 154.225L85.4236 85.9067Z" fill="#C4CAD0"/>
<path d="M183.983 94.0539L109.184 134.208L110.755 137.164L185.553 97.0106L183.983 94.0539Z" fill="#C4CAD0"/>
<path d="M97.1089 151.248C97.1622 151.355 97.0556 151.475 96.7889 151.603L96.4488 151.791L96.1621 151.938C95.9954 152.032 95.9087 152.112 95.9087 152.186C95.9572 152.383 96.0359 152.57 96.1421 152.742L100.97 161.826C101.263 162.38 101.43 162.709 101.47 162.811C101.51 162.912 101.47 162.972 101.47 163.006C101.47 163.039 101.303 163.006 101.156 162.945L97.5756 161.068C95.4953 159.969 92.9371 158.577 89.9011 156.892L94.6018 165.734C94.6382 165.797 94.6957 165.845 94.7641 165.87C94.8325 165.894 94.9073 165.894 94.9752 165.868C95.355 165.734 95.723 165.568 96.0754 165.372C96.2154 165.292 96.3088 165.298 96.3488 165.372C96.3888 165.446 96.3021 165.6 96.0287 165.748C95.9354 165.801 95.6287 165.942 95.1086 166.183L94.6085 166.425C94.5278 166.49 94.4432 166.55 94.3551 166.606C94.1684 166.733 93.8817 166.901 93.4817 167.115L93.3283 167.195C93.0816 167.33 92.9416 167.343 92.8882 167.249C92.8349 167.155 92.8882 167.048 93.1283 166.941C93.5024 166.778 93.8454 166.552 94.1418 166.27C94.2018 166.15 94.1418 165.895 93.9351 165.52L89.7877 157.723C89.3277 156.845 88.8543 156.383 88.3808 156.383C88.0329 156.408 87.6963 156.518 87.4007 156.704C87.134 156.852 86.9673 156.865 86.9073 156.758C86.8473 156.651 86.9073 156.564 87.0606 156.483C87.214 156.403 87.5474 156.235 87.8808 156.081L88.4142 155.833L88.8476 155.585C89.1943 155.397 89.5144 155.203 89.8277 154.995L99.5693 160.224L95.8354 153.192C95.662 152.87 95.5487 152.675 95.502 152.608C95.478 152.577 95.4463 152.553 95.4101 152.537C95.3739 152.522 95.3343 152.516 95.2953 152.521C95.0169 152.597 94.7516 152.714 94.5085 152.87C94.1351 153.071 93.9128 153.125 93.8417 153.031C93.7884 152.923 93.8884 152.803 94.1351 152.669L94.6885 152.374L95.1286 152.139L95.422 151.978L95.7087 151.824L96.1754 151.576L96.6622 151.315C96.9089 151.154 97.0556 151.147 97.1089 151.248Z" fill="#A6A8AA"/>
<path d="M107.137 155.384C107.665 156.312 107.82 157.408 107.571 158.447C107.464 158.935 107.251 159.393 106.947 159.787C106.642 160.181 106.254 160.502 105.81 160.726C105.367 160.976 104.876 161.127 104.37 161.169C103.863 161.21 103.354 161.142 102.876 160.968C101.863 160.62 101.029 159.882 100.556 158.916C100.011 157.973 99.8467 156.855 100.096 155.793C100.208 155.303 100.426 154.844 100.733 154.448C101.041 154.052 101.431 153.728 101.876 153.5C102.318 153.253 102.808 153.106 103.312 153.068C103.817 153.029 104.323 153.101 104.797 153.279C105.816 153.653 106.654 154.406 107.137 155.384V155.384ZM105.697 156.134C105.241 155.175 104.553 154.345 103.697 153.721C103.443 153.56 103.15 153.474 102.85 153.474C102.55 153.474 102.256 153.56 102.003 153.721C101.713 153.88 101.475 154.119 101.316 154.41C101.158 154.702 101.086 155.032 101.109 155.364C101.159 156.348 101.447 157.306 101.95 158.152C102.362 159.038 102.999 159.799 103.797 160.358C104.08 160.555 104.412 160.668 104.756 160.686C105.1 160.704 105.442 160.625 105.744 160.458C105.961 160.358 106.148 160.2 106.284 160.002C106.42 159.804 106.501 159.572 106.517 159.332C106.548 158.21 106.263 157.102 105.697 156.134Z" fill="#A6A8AA"/>
<path d="M110.724 156.899C110.787 157.008 110.826 157.13 110.839 157.256C110.851 157.382 110.837 157.509 110.798 157.629C110.766 157.754 110.709 157.87 110.631 157.972C110.552 158.073 110.455 158.158 110.343 158.221C110.232 158.283 110.109 158.322 109.982 158.336C109.855 158.35 109.726 158.337 109.604 158.3C109.358 158.226 109.15 158.059 109.026 157.833C108.901 157.608 108.869 157.342 108.937 157.093C108.973 156.97 109.034 156.855 109.115 156.756C109.196 156.657 109.297 156.575 109.411 156.517C109.52 156.456 109.64 156.419 109.764 156.407C109.888 156.396 110.013 156.41 110.131 156.45C110.255 156.481 110.371 156.537 110.473 156.614C110.575 156.691 110.66 156.788 110.724 156.899V156.899Z" fill="#A6A8AA"/>
<path d="M152.891 129.789C152.423 128.969 152.088 128.08 151.898 127.155C151.765 126.506 151.823 125.833 152.064 125.217C152.322 124.633 152.775 124.159 153.345 123.877C153.753 123.649 154.211 123.522 154.678 123.508C155.129 123.508 155.573 123.626 155.965 123.85C156.42 124.115 156.83 124.452 157.178 124.849C157.683 125.439 158.113 126.09 158.459 126.786C158.92 127.601 159.255 128.483 159.452 129.4C159.581 130.049 159.523 130.721 159.285 131.338C158.966 132.01 158.407 132.537 157.719 132.815C157.032 133.093 156.265 133.102 155.572 132.839C154.643 132.424 153.749 131.407 152.891 129.789ZM153.971 129.206C154.725 130.62 155.392 131.478 155.972 131.767C156.212 131.914 156.487 131.995 156.768 132.002C157.049 132.009 157.328 131.94 157.574 131.804C157.821 131.668 158.028 131.469 158.174 131.227C158.32 130.985 158.4 130.709 158.405 130.426C158.485 129.782 158.152 128.752 157.405 127.336C156.645 125.921 155.985 125.063 155.405 124.775C155.162 124.634 154.887 124.556 154.606 124.549C154.326 124.542 154.048 124.606 153.798 124.735C153.567 124.854 153.37 125.03 153.225 125.247C153.081 125.464 152.993 125.715 152.971 125.975C152.887 126.717 153.22 127.794 153.971 129.206V129.206Z" fill="#A6A8AA"/>
<path d="M166.807 126.471L167.353 127.49L161.679 130.533C161.538 130.288 161.448 130.017 161.413 129.736C161.354 129.227 161.383 128.712 161.499 128.214C161.66 127.525 161.884 126.851 162.166 126.203C162.58 125.294 162.889 124.34 163.086 123.36C163.192 122.842 163.126 122.303 162.899 121.825C162.799 121.624 162.657 121.447 162.484 121.305C162.31 121.163 162.109 121.059 161.893 121.001C161.403 120.899 160.892 120.978 160.456 121.225C160.02 121.471 159.687 121.868 159.519 122.341C159.387 122.857 159.464 123.404 159.732 123.863L158.592 124.332C158.242 123.614 158.187 122.785 158.439 122.026C158.752 121.283 159.326 120.682 160.052 120.337C160.749 119.915 161.583 119.787 162.373 119.982C162.723 120.076 163.049 120.245 163.33 120.476C163.61 120.707 163.839 120.996 164 121.322C164.183 121.674 164.294 122.059 164.326 122.455C164.36 122.936 164.312 123.419 164.186 123.883C163.968 124.698 163.696 125.498 163.373 126.276C163.019 127.148 162.806 127.724 162.706 128.013C162.636 128.279 162.59 128.55 162.566 128.824L166.807 126.471Z" fill="#A6A8AA"/>
<path d="M173.474 122.898L174.014 123.91L168.347 126.96C168.204 126.713 168.113 126.44 168.08 126.156C168.015 125.648 168.043 125.132 168.16 124.634C168.326 123.946 168.549 123.273 168.827 122.623C169.236 121.712 169.545 120.759 169.747 119.781C169.849 119.262 169.783 118.724 169.56 118.245C169.46 118.043 169.317 117.865 169.142 117.723C168.967 117.581 168.764 117.478 168.547 117.421C168.075 117.298 167.574 117.368 167.153 117.615C166.924 117.725 166.72 117.88 166.553 118.071C166.385 118.262 166.259 118.486 166.18 118.728C166.112 118.983 166.096 119.249 166.133 119.511C166.17 119.772 166.258 120.024 166.393 120.25L165.246 120.719C164.898 120 164.845 119.171 165.1 118.413C165.41 117.672 165.983 117.073 166.707 116.73C167.402 116.307 168.236 116.177 169.027 116.368C169.378 116.461 169.705 116.629 169.986 116.861C170.267 117.092 170.494 117.381 170.654 117.709C170.84 118.058 170.954 118.441 170.987 118.835C171.014 119.316 170.967 119.797 170.847 120.263C170.624 121.077 170.35 121.877 170.027 122.656C169.68 123.528 169.467 124.111 169.36 124.393C169.284 124.659 169.237 124.934 169.22 125.211L173.474 122.898Z" fill="#A6A8AA"/>
<path d="M174.241 121.229L175.208 120.558C175.459 120.926 175.825 121.2 176.248 121.336C176.627 121.417 177.022 121.352 177.355 121.155C177.657 121.007 177.909 120.774 178.082 120.485C178.246 120.205 178.345 119.89 178.369 119.566C178.381 119.154 178.332 118.743 178.222 118.346C178.103 117.866 177.926 117.402 177.695 116.965L177.575 116.757C177.54 117.215 177.394 117.657 177.148 118.044C176.897 118.444 176.545 118.771 176.128 118.99C175.794 119.178 175.424 119.292 175.042 119.326C174.661 119.359 174.276 119.311 173.915 119.184C173.518 119.043 173.153 118.825 172.841 118.542C172.528 118.259 172.275 117.917 172.094 117.535C171.87 117.159 171.724 116.741 171.663 116.307C171.602 115.873 171.629 115.431 171.741 115.008C171.848 114.613 172.037 114.245 172.296 113.928C172.554 113.612 172.877 113.354 173.241 113.171C173.783 112.874 174.4 112.745 175.015 112.802C175.654 112.863 176.26 113.116 176.755 113.526C177.441 114.16 178 114.92 178.402 115.765C178.908 116.638 179.26 117.593 179.442 118.587C179.561 119.285 179.468 120.002 179.175 120.645C178.876 121.251 178.389 121.742 177.788 122.046C177.206 122.398 176.512 122.513 175.848 122.368C175.191 122.2 174.619 121.794 174.241 121.229V121.229ZM176.535 115.108C176.281 114.566 175.834 114.14 175.281 113.915C175.048 113.823 174.798 113.784 174.548 113.8C174.298 113.817 174.054 113.888 173.835 114.009C173.602 114.133 173.4 114.308 173.242 114.52C173.084 114.732 172.974 114.976 172.921 115.236C172.78 115.841 172.878 116.478 173.194 117.012C173.315 117.262 173.484 117.486 173.691 117.67C173.898 117.854 174.139 117.995 174.401 118.085C174.646 118.168 174.906 118.198 175.163 118.174C175.42 118.15 175.67 118.071 175.895 117.944C176.124 117.83 176.325 117.667 176.485 117.467C176.645 117.266 176.76 117.033 176.822 116.784C176.943 116.209 176.841 115.609 176.535 115.108Z" fill="#A6A8AA"/>
<path d="M180.609 117.448L181.582 116.777C181.915 117.232 182.381 117.57 182.916 117.743C183.347 117.849 183.802 117.787 184.189 117.568C184.426 117.448 184.635 117.28 184.803 117.074C184.972 116.869 185.097 116.631 185.17 116.375C185.247 116.118 185.271 115.848 185.243 115.581C185.214 115.313 185.133 115.055 185.003 114.82C184.891 114.593 184.735 114.392 184.544 114.229C184.352 114.065 184.13 113.942 183.889 113.868C183.647 113.797 183.393 113.776 183.142 113.806C182.891 113.836 182.649 113.916 182.429 114.042C182.188 114.188 181.964 114.361 181.762 114.558L181.389 113.566C181.45 113.546 181.508 113.519 181.562 113.486C181.997 113.264 182.355 112.916 182.589 112.487C182.704 112.274 182.76 112.034 182.753 111.791C182.746 111.549 182.676 111.312 182.549 111.106C182.459 110.924 182.332 110.763 182.175 110.634C182.019 110.504 181.838 110.409 181.642 110.355C181.44 110.3 181.228 110.285 181.019 110.313C180.811 110.34 180.61 110.41 180.429 110.516C180.043 110.708 179.748 111.045 179.609 111.455C179.476 111.934 179.509 112.444 179.702 112.903L178.549 113.278C178.301 112.592 178.301 111.84 178.549 111.153C178.817 110.501 179.313 109.97 179.942 109.658C180.388 109.411 180.887 109.276 181.396 109.263C181.863 109.249 182.325 109.368 182.729 109.604C183.112 109.83 183.426 110.157 183.636 110.55C183.834 110.909 183.918 111.321 183.876 111.73C183.83 112.169 183.658 112.585 183.383 112.93C183.902 112.772 184.461 112.808 184.956 113.03C185.459 113.281 185.867 113.691 186.116 114.196C186.312 114.553 186.43 114.947 186.464 115.352C186.497 115.758 186.445 116.166 186.31 116.549C186.172 116.96 185.955 117.338 185.671 117.664C185.388 117.99 185.043 118.256 184.656 118.447C183.981 118.84 183.181 118.957 182.422 118.775C182.048 118.686 181.694 118.523 181.383 118.295C181.071 118.067 180.808 117.779 180.609 117.448Z" fill="#A6A8AA"/>
<path d="M187.61 110.61C187.159 110.694 186.693 110.636 186.276 110.442C185.881 110.25 185.56 109.932 185.363 109.537C185.2 109.244 185.101 108.918 185.072 108.583C185.044 108.248 185.086 107.911 185.196 107.593C185.448 106.888 185.969 106.311 186.643 105.991C186.965 105.798 187.321 105.671 187.692 105.617C188.063 105.563 188.441 105.583 188.804 105.676C189.131 105.759 189.438 105.911 189.702 106.123C189.967 106.335 190.183 106.6 190.337 106.903C190.542 107.272 190.626 107.696 190.577 108.116C190.506 108.564 190.301 108.98 189.99 109.309C190.546 109.192 191.124 109.261 191.637 109.504C192.132 109.753 192.533 110.158 192.778 110.657C192.971 111 193.09 111.381 193.126 111.774C193.163 112.166 193.117 112.563 192.991 112.936C192.706 113.747 192.114 114.412 191.344 114.786C190.978 115.005 190.573 115.148 190.151 115.206C189.73 115.265 189.301 115.238 188.89 115.128C188.507 115.024 188.15 114.839 187.843 114.586C187.537 114.333 187.287 114.017 187.11 113.66C186.825 113.166 186.713 112.59 186.79 112.024C186.891 111.471 187.181 110.971 187.61 110.61V110.61ZM188.223 113.09C188.381 113.395 188.61 113.658 188.89 113.855C189.176 114.061 189.519 114.171 189.87 114.17C190.231 114.176 190.587 114.088 190.904 113.915C191.137 113.799 191.345 113.638 191.514 113.439C191.684 113.241 191.812 113.011 191.891 112.762C191.967 112.512 191.992 112.25 191.963 111.99C191.935 111.731 191.853 111.48 191.724 111.254C191.604 111.016 191.438 110.805 191.235 110.634C191.031 110.463 190.795 110.336 190.541 110.26C190.287 110.184 190.02 110.161 189.757 110.192C189.494 110.224 189.24 110.309 189.01 110.442C188.78 110.558 188.575 110.72 188.408 110.917C188.242 111.115 188.118 111.345 188.043 111.593C187.968 111.841 187.944 112.102 187.973 112.359C188.002 112.617 188.082 112.865 188.21 113.09H188.223ZM186.45 108.927C186.54 109.116 186.669 109.284 186.827 109.42C186.985 109.557 187.17 109.658 187.37 109.718C187.575 109.777 187.789 109.793 188 109.765C188.211 109.738 188.414 109.667 188.597 109.558C188.784 109.466 188.951 109.338 189.087 109.18C189.223 109.022 189.327 108.838 189.39 108.639C189.451 108.449 189.473 108.249 189.453 108.051C189.434 107.852 189.374 107.66 189.277 107.486C189.184 107.302 189.055 107.139 188.896 107.007C188.738 106.876 188.554 106.778 188.357 106.722C187.951 106.615 187.521 106.666 187.15 106.863C186.78 107.061 186.497 107.391 186.356 107.788C186.293 107.973 186.268 108.169 186.284 108.364C186.3 108.559 186.357 108.749 186.45 108.921V108.927Z" fill="#A6A8AA"/>
<path d="M77.6589 104.514C77.9292 104.384 77.9578 104.121 77.7227 103.931L75.4789 102.113C75.2439 101.922 74.8303 101.874 74.56 102.004L66.6221 105.839C66.3518 105.969 66.1313 106.324 66.1324 106.628L66.1405 109.525C66.1416 109.829 66.3633 109.971 66.6336 109.84L77.6589 104.514Z" fill="#EC1654"/>
<path d="M83.0124 101.928C83.2826 101.797 83.2775 101.591 83.0015 101.468L79.6747 99.997C79.3987 99.8744 78.9513 99.8814 78.681 100.012L76.6044 101.015C76.3342 101.146 76.3055 101.408 76.5406 101.599L78.7867 103.415C79.0218 103.606 79.4354 103.654 79.7056 103.524L83.0118 101.927L83.0124 101.928Z" fill="#EC1654"/>
<path d="M64.9525 107.198C64.9514 106.894 64.7297 106.753 64.4606 106.883L62.3828 107.886C62.1126 108.017 61.8276 108.364 61.7503 108.657L60.8133 112.186C60.736 112.48 60.8933 112.613 61.1635 112.482L64.4685 110.886C64.7388 110.755 64.9593 110.4 64.9582 110.097L64.9525 107.198Z" fill="#EC1654"/>
<path d="M61.5838 113.405C61.3135 113.536 61.3157 113.748 61.5887 113.877L76.0267 120.703C76.2998 120.831 76.3336 120.778 76.102 120.583L65.8158 111.92C65.5843 111.724 65.1731 111.672 64.9028 111.802L61.5838 113.405V113.405Z" fill="#EC1654"/>
<path d="M80.1493 104.437C79.8791 104.568 79.6632 104.924 79.6701 105.227L79.9675 118.716C79.9744 119.02 80.0372 119.027 80.1075 118.732L83.8314 103.132C83.9023 102.838 83.7386 102.703 83.4684 102.834L80.1493 104.437V104.437Z" fill="#EC1654"/>
<path d="M74.5519 111.717C74.2558 111.766 74.1933 111.638 74.4115 111.432L78.2504 107.807C78.4686 107.601 78.6421 107.183 78.6364 106.879L78.6113 105.739C78.6044 105.435 78.378 105.293 78.1078 105.423L67.0625 110.759C66.7923 110.889 66.7613 111.156 66.9928 111.351L70.8025 114.559C71.034 114.754 71.4638 114.861 71.7565 114.796L76.6312 113.72C76.9245 113.656 77.0205 113.803 76.8443 114.049L74.6601 117.093C74.4845 117.337 74.5303 117.698 74.7619 117.893L78.5353 121.07C78.7668 121.266 78.9517 121.176 78.9447 120.873L78.7398 111.57C78.7329 111.266 78.4852 111.058 78.1892 111.108L74.5519 111.717Z" fill="#EC1654"/>
</g>
<defs>
<radialGradient id="paint0_radial" cx="0" cy="0" r="1" gradientUnits="userSpaceOnUse" gradientTransform="translate(119.849 213.416) scale(87.3027 12.5447)">
<stop stop-color="#F7D4E2"/>
<stop offset="0.49" stop-color="#FBEBF2"/>
<stop offset="1" stop-color="white"/>
</radialGradient>
<clipPath id="clip0">
<rect width="250" height="220" fill="white"/>
</clipPath>
</defs>
</svg>
