<svg width="291" height="266" viewBox="0 0 291 266" fill="none" xmlns="http://www.w3.org/2000/svg">
<path d="M89.1357 49.0294L179.371 30.618L219.612 69.8236L169.618 127.44L79.3923 145.848L39.1514 106.643L89.1357 49.0294Z" fill="url(#paint0_linear)"/>
<path d="M257.42 94.7512L219.605 69.8046L169.614 127.399L192.596 169.421L257.42 94.7512Z" fill="url(#paint1_linear)"/>
<path d="M79.3819 145.82L75.627 193.301L192.596 169.421L169.614 127.399L79.3819 145.82Z" fill="url(#paint2_linear)"/>
<path d="M39.1516 106.643L79.3822 145.82L75.6272 193.301L23.4693 142.505L39.1516 106.643Z" fill="url(#paint3_linear)"/>
<path d="M179.374 30.6275L205.252 43.9592L257.42 94.7512L219.605 69.8046L179.374 30.6275Z" fill="url(#paint4_linear)"/>
<path d="M257.42 94.7512L179.283 225.352L192.596 169.421L257.42 94.7512Z" fill="url(#paint5_linear)"/>
<path d="M75.6271 193.301L179.284 225.352L192.596 169.421L75.6271 193.301Z" fill="url(#paint6_linear)"/>
<path d="M219.612 69.8235L129.377 88.2349L169.618 127.44L219.612 69.8235Z" fill="url(#paint7_linear)"/>
<path d="M179.371 30.618L129.377 88.2349L219.612 69.8236L179.371 30.618Z" fill="url(#paint8_linear)"/>
<path d="M89.1357 49.0293L129.377 88.2349L179.371 30.618L89.1357 49.0293Z" fill="url(#paint9_linear)"/>
<path d="M169.617 127.44L129.376 88.2349L79.3921 145.848L169.617 127.44Z" fill="url(#paint10_linear)"/>
<path d="M39.1516 106.643L129.377 88.2349L79.3926 145.848L39.1516 106.643Z" fill="url(#paint11_linear)"/>
<path d="M89.1357 49.0294L129.377 88.2349L39.1514 106.643L89.1357 49.0294Z" fill="url(#paint12_linear)"/>
<path d="M192.596 169.421L128.689 156.102L169.614 127.399L192.596 169.421Z" fill="url(#paint13_linear)"/>
<path d="M79.3821 145.82L128.689 156.102L169.614 127.399L79.3821 145.82Z" fill="url(#paint14_linear)"/>
<path d="M128.708 156.094L75.6467 193.294C75.6467 193.294 78.9798 145.729 79.4017 145.812L128.708 156.094Z" fill="url(#paint15_linear)"/>
<path d="M192.596 169.421L128.689 156.102L75.6271 193.301L192.596 169.421Z" fill="url(#paint16_linear)"/>
<path d="M55.0359 144.382L75.6272 193.301L79.3821 145.82L55.0359 144.382Z" fill="url(#paint17_linear)"/>
<path d="M39.1516 106.643L79.3822 145.82L55.036 144.382L39.1516 106.643Z" fill="url(#paint18_linear)"/>
<path d="M23.4693 142.505L39.1516 106.643L55.036 144.382L23.4693 142.505Z" fill="url(#paint19_linear)"/>
<path d="M75.627 193.301L23.4691 142.505L55.0358 144.382L75.627 193.301Z" fill="url(#paint20_linear)"/>
<path d="M219.605 69.8046L257.42 94.7513L207.86 113.134L219.605 69.8046Z" fill="url(#paint21_linear)"/>
<path d="M169.614 127.399L219.605 69.8046L207.86 113.134L169.614 127.399Z" fill="url(#paint22_linear)"/>
<path d="M192.596 169.421L207.86 113.134L169.614 127.399L192.596 169.421Z" fill="url(#paint23_linear)"/>
<path d="M257.42 94.7512L207.86 113.134L192.596 169.421L257.42 94.7512Z" fill="url(#paint24_linear)"/>
<path d="M179.374 30.6275L205.252 43.9592L213.36 58.5499L179.374 30.6275Z" fill="url(#paint25_linear)"/>
<path d="M219.605 69.8046L213.36 58.5499L179.374 30.6275L219.605 69.8046Z" fill="url(#paint26_linear)"/>
<path d="M205.252 43.9592L257.42 94.7512L213.36 58.5498L205.252 43.9592Z" fill="url(#paint27_linear)"/>
<path d="M219.605 69.8046L213.36 58.5499L257.42 94.7512L219.605 69.8046Z" fill="url(#paint28_linear)"/>
<path d="M179.283 225.352L155.442 177.003L107.957 186.699L179.283 225.352Z" fill="url(#paint29_linear)"/>
<path d="M179.283 225.352L214.428 144.277L237.172 118.07L179.283 225.352Z" fill="url(#paint30_linear)"/>
<path d="M39.1779 106.654L23.6656 142.584L23.5861 142.366L49.7678 167.661L56.2781 174.02L62.7559 180.411C64.9184 182.541 67.0548 184.69 69.201 186.836C71.3473 188.982 73.4737 191.136 75.6101 193.285L75.5508 193.307C73.3492 191.224 71.1215 189.161 68.9402 187.104C66.7589 185.046 64.5336 182.928 62.3547 180.816L55.7856 174.511L49.2589 168.17L23.3223 142.655L23.218 142.553L23.2723 142.426L39.1147 106.634L39.1779 106.654Z" fill="white"/>
<path d="M169.614 127.399L79.4468 146.151L79.3173 145.488L169.614 127.399Z" fill="#FFD1D1"/>
<path d="M192.596 169.421L134.149 181.525L75.6809 193.572L75.3143 193.641L75.3419 193.286L79.0638 145.806L79.1502 146.044L38.9034 106.884L38.6781 106.664L38.893 106.425L88.9109 48.8422L88.9826 48.7623L89.0883 48.7453L134.217 39.6484L179.374 30.6275L134.293 40.0085L89.193 49.3098L89.3704 49.213L39.4063 106.851L39.3994 106.402L79.6136 145.596L79.7179 145.697L79.7036 145.843L75.9121 193.315L75.583 193.026L134.08 181.184L192.596 169.421Z" fill="white"/>
<path d="M179.374 30.6275L189.494 40.3535L199.574 50.126L209.658 59.908L214.702 64.7877L219.723 69.6972L219.702 69.6723L238.569 82.1874L248.009 88.4478L257.42 94.7512L247.922 88.5765L238.443 82.3625L219.508 69.9368L219.504 69.9273L219.491 69.9214L214.454 65.0286L209.433 60.1191L199.402 50.2965L189.364 40.4871L179.374 30.6275Z" fill="#FFB0B0"/>
<path d="M192.606 169.417C192.63 169.169 192.6 168.919 192.518 168.685C192.432 168.447 192.345 168.21 192.262 167.982C192.089 167.507 191.916 167.031 191.691 166.597C191.276 165.672 190.831 164.757 190.394 163.894C189.475 162.076 188.544 160.349 187.58 158.591C185.658 155.093 183.693 151.611 181.685 148.145C177.687 141.217 173.593 134.334 169.456 127.489L169.422 127.393L169.501 127.365C173.669 122.554 177.814 117.742 181.993 112.96L194.516 98.5764L207.043 84.2024L219.612 69.8557L207.183 84.3126L194.707 98.7328L182.245 113.159C178.09 117.975 173.897 122.751 169.735 127.548L169.753 127.381C173.871 134.247 177.923 141.149 181.91 148.085C183.891 151.561 185.862 155.04 187.742 158.575C188.69 160.382 189.608 162.103 190.487 163.904C190.932 164.818 191.366 165.736 191.772 166.664C191.945 167.14 192.118 167.615 192.287 168.08C192.37 168.308 192.456 168.546 192.543 168.784C192.599 168.989 192.621 169.203 192.606 169.417V169.417Z" fill="#FFB0B0"/>
<path d="M257.44 94.744L254.674 97.9675L247.383 106.465L225.185 132.172L202.853 157.788L195.458 166.216L192.652 169.39L195.407 166.17L202.708 157.669L224.923 131.945L247.222 106.362L254.611 97.9475L257.44 94.744Z" fill="#FFB0B0"/>
<defs>
<linearGradient id="paint0_linear" x1="43.7896" y1="119.386" x2="214.974" y2="57.0802" gradientUnits="userSpaceOnUse">
<stop stop-color="#FF2952"/>
<stop offset="0.33" stop-color="#FF606E"/>
<stop offset="0.63" stop-color="#FF8A84"/>
<stop offset="0.86" stop-color="#FFA391"/>
<stop offset="1" stop-color="#FFAD96"/>
</linearGradient>
<linearGradient id="paint1_linear" x1="30688.1" y1="2873.63" x2="28358.8" y2="12358.2" gradientUnits="userSpaceOnUse">
<stop stop-color="#FF2952"/>
<stop offset="0.33" stop-color="#FF606E"/>
<stop offset="0.63" stop-color="#FF8A84"/>
<stop offset="0.86" stop-color="#FFA391"/>
<stop offset="1" stop-color="#FFAD96"/>
</linearGradient>
<linearGradient id="paint2_linear" x1="29333.2" y1="2399.56" x2="20517.6" y2="11041.3" gradientUnits="userSpaceOnUse">
<stop stop-color="#FF2952"/>
<stop offset="0.33" stop-color="#FF606E"/>
<stop offset="0.63" stop-color="#FF8A84"/>
<stop offset="0.86" stop-color="#FFA391"/>
<stop offset="1" stop-color="#FFAD96"/>
</linearGradient>
<linearGradient id="paint3_linear" x1="15145.3" y1="14759.2" x2="9530.03" y2="15458.5" gradientUnits="userSpaceOnUse">
<stop stop-color="#FF2952"/>
<stop offset="0.33" stop-color="#FF606E"/>
<stop offset="0.63" stop-color="#FF8A84"/>
<stop offset="0.86" stop-color="#FFA391"/>
<stop offset="1" stop-color="#FFAD96"/>
</linearGradient>
<linearGradient id="paint4_linear" x1="17358" y1="7534.55" x2="19719.7" y2="6674.95" gradientUnits="userSpaceOnUse">
<stop stop-color="#FF2952"/>
<stop offset="0.33" stop-color="#FF606E"/>
<stop offset="0.63" stop-color="#FF8A84"/>
<stop offset="0.86" stop-color="#FFA391"/>
<stop offset="1" stop-color="#FFAD96"/>
</linearGradient>
<linearGradient id="paint5_linear" x1="218.926" y1="164.842" x2="225.94" y2="215.621" gradientUnits="userSpaceOnUse">
<stop stop-color="#FF214E"/>
<stop offset="0.28" stop-color="#FF4C69"/>
<stop offset="0.6" stop-color="#FF7683"/>
<stop offset="0.85" stop-color="#FF8F93"/>
<stop offset="1" stop-color="#FF9999"/>
</linearGradient>
<linearGradient id="paint6_linear" x1="136.404" y1="186.677" x2="159.214" y2="240.301" gradientUnits="userSpaceOnUse">
<stop stop-color="#FF2643"/>
<stop offset="0.22" stop-color="#FF4558"/>
<stop offset="0.57" stop-color="#FF6F74"/>
<stop offset="0.84" stop-color="#FF8886"/>
<stop offset="1" stop-color="#FF928C"/>
</linearGradient>
<linearGradient id="paint7_linear" x1="25178.2" y1="491.71" x2="22733.2" y2="-3053.74" gradientUnits="userSpaceOnUse">
<stop stop-color="#FF2952"/>
<stop offset="0.33" stop-color="#FF606E"/>
<stop offset="0.63" stop-color="#FF8A84"/>
<stop offset="0.86" stop-color="#FFA391"/>
<stop offset="1" stop-color="#FFAD96"/>
</linearGradient>
<linearGradient id="paint8_linear" x1="22747.3" y1="665.535" x2="23234" y2="-4944.48" gradientUnits="userSpaceOnUse">
<stop stop-color="#FF2952"/>
<stop offset="0.33" stop-color="#FF606E"/>
<stop offset="0.63" stop-color="#FF8A84"/>
<stop offset="0.86" stop-color="#FFA391"/>
<stop offset="1" stop-color="#FFAD96"/>
</linearGradient>
<linearGradient id="paint9_linear" x1="182.398" y1="42.0105" x2="106.01" y2="69.8135" gradientUnits="userSpaceOnUse">
<stop stop-color="#FF6B6B"/>
<stop offset="0.33" stop-color="#FFA3A3"/>
<stop offset="0.63" stop-color="#FFCDCD"/>
<stop offset="0.86" stop-color="#FFE6E6"/>
<stop offset="1" stop-color="#FFF0F0"/>
</linearGradient>
<linearGradient id="paint10_linear" x1="18876.1" y1="3895.38" x2="17711.5" y2="320.59" gradientUnits="userSpaceOnUse">
<stop stop-color="#FF2952"/>
<stop offset="0.33" stop-color="#FF606E"/>
<stop offset="0.63" stop-color="#FF8A84"/>
<stop offset="0.86" stop-color="#FFA391"/>
<stop offset="1" stop-color="#FFAD96"/>
</linearGradient>
<linearGradient id="paint11_linear" x1="17621.9" y1="2587.26" x2="15650.1" y2="403.404" gradientUnits="userSpaceOnUse">
<stop stop-color="#FF6B6B"/>
<stop offset="0.33" stop-color="#FFA3A3"/>
<stop offset="0.63" stop-color="#FFCDCD"/>
<stop offset="0.86" stop-color="#FFE6E6"/>
<stop offset="1" stop-color="#FFF0F0"/>
</linearGradient>
<linearGradient id="paint12_linear" x1="19200.7" y1="1114.27" x2="16303.7" y2="-922.602" gradientUnits="userSpaceOnUse">
<stop stop-color="#FF6B6B"/>
<stop offset="0.33" stop-color="#FFA3A3"/>
<stop offset="0.63" stop-color="#FFCDCD"/>
<stop offset="0.86" stop-color="#FFE6E6"/>
<stop offset="1" stop-color="#FFF0F0"/>
</linearGradient>
<linearGradient id="paint13_linear" x1="206.352" y1="154.707" x2="127.943" y2="133.952" gradientUnits="userSpaceOnUse">
<stop stop-color="#FF214E"/>
<stop offset="0.1" stop-color="#FF2D54"/>
<stop offset="0.5" stop-color="#FF5769"/>
<stop offset="0.81" stop-color="#FF7075"/>
<stop offset="1" stop-color="#FF7A7A"/>
</linearGradient>
<linearGradient id="paint14_linear" x1="194.367" y1="152.429" x2="82.9229" y2="122.939" gradientUnits="userSpaceOnUse">
<stop stop-color="#FFE2DE"/>
<stop offset="0.2" stop-color="#FFD8D4"/>
<stop offset="0.53" stop-color="#FFBFBB"/>
<stop offset="0.95" stop-color="#FF9591"/>
<stop offset="1" stop-color="#FF908C"/>
</linearGradient>
<linearGradient id="paint15_linear" x1="86.2214" y1="184.44" x2="107.997" y2="139.375" gradientUnits="userSpaceOnUse">
<stop stop-color="#FF7070"/>
<stop offset="0.05" stop-color="#FF7575"/>
<stop offset="0.47" stop-color="#FF9F9A"/>
<stop offset="0.8" stop-color="#FFB8B1"/>
<stop offset="1" stop-color="#FFC2BA"/>
</linearGradient>
<linearGradient id="paint16_linear" x1="190.857" y1="160.002" x2="72.4948" y2="177.84" gradientUnits="userSpaceOnUse">
<stop stop-color="#FF1443"/>
<stop offset="0.04" stop-color="#FF1B47"/>
<stop offset="0.37" stop-color="#FF556C"/>
<stop offset="0.65" stop-color="#FF7F87"/>
<stop offset="0.87" stop-color="#FF9898"/>
<stop offset="1" stop-color="#FFA29E"/>
</linearGradient>
<linearGradient id="paint17_linear" x1="70.1676" y1="133.354" x2="63.9244" y2="193.135" gradientUnits="userSpaceOnUse">
<stop stop-color="#FF686E"/>
<stop offset="0.11" stop-color="#FF7577"/>
<stop offset="0.5" stop-color="#FF9F92"/>
<stop offset="0.81" stop-color="#FFB8A4"/>
<stop offset="1" stop-color="#FFC2AA"/>
</linearGradient>
<linearGradient id="paint18_linear" x1="61.1111" y1="108.594" x2="57.6327" y2="155.221" gradientUnits="userSpaceOnUse">
<stop stop-color="white"/>
<stop offset="0.16" stop-color="#FFF7F5"/>
<stop offset="0.43" stop-color="#FFE3DC"/>
<stop offset="0.77" stop-color="#FFC2B2"/>
<stop offset="1" stop-color="#FFA891"/>
</linearGradient>
<linearGradient id="paint19_linear" x1="5040.81" y1="4145.82" x2="4641.79" y2="5878" gradientUnits="userSpaceOnUse">
<stop stop-color="white"/>
<stop offset="0.16" stop-color="#FFF7F5"/>
<stop offset="0.43" stop-color="#FFE3DC"/>
<stop offset="0.77" stop-color="#FFC2B2"/>
<stop offset="1" stop-color="#FFA891"/>
</linearGradient>
<linearGradient id="paint20_linear" x1="8605.25" y1="12187" x2="5501.8" y2="10444.9" gradientUnits="userSpaceOnUse">
<stop stop-color="#FF686E"/>
<stop offset="0.11" stop-color="#FF7577"/>
<stop offset="0.5" stop-color="#FF9F92"/>
<stop offset="0.81" stop-color="#FFB8A4"/>
<stop offset="1" stop-color="#FFC2AA"/>
</linearGradient>
<linearGradient id="paint21_linear" x1="14945.8" y1="1597.57" x2="18185" y2="112.596" gradientUnits="userSpaceOnUse">
<stop stop-color="#FF214E"/>
<stop offset="0.1" stop-color="#FF2D54"/>
<stop offset="0.5" stop-color="#FF5769"/>
<stop offset="0.81" stop-color="#FF7075"/>
<stop offset="1" stop-color="#FF7A7A"/>
</linearGradient>
<linearGradient id="paint22_linear" x1="224.808" y1="93.5993" x2="167.208" y2="102.279" gradientUnits="userSpaceOnUse">
<stop stop-color="#FFC2BA"/>
<stop offset="0.2" stop-color="#FFB8B1"/>
<stop offset="0.53" stop-color="#FF9F9A"/>
<stop offset="0.95" stop-color="#FF7575"/>
<stop offset="1" stop-color="#FF7070"/>
</linearGradient>
<linearGradient id="paint23_linear" x1="12188.2" y1="6878.99" x2="13961.2" y2="5216.1" gradientUnits="userSpaceOnUse">
<stop stop-color="#FF214E"/>
<stop offset="0.1" stop-color="#FF2D54"/>
<stop offset="0.5" stop-color="#FF5769"/>
<stop offset="0.81" stop-color="#FF7075"/>
<stop offset="1" stop-color="#FF7A7A"/>
</linearGradient>
<linearGradient id="paint24_linear" x1="28015.8" y1="-447.146" x2="24805.9" y2="5416.91" gradientUnits="userSpaceOnUse">
<stop stop-color="#FF214E"/>
<stop offset="0.1" stop-color="#FF2D54"/>
<stop offset="0.5" stop-color="#FF5769"/>
<stop offset="0.81" stop-color="#FF7075"/>
<stop offset="1" stop-color="#FF7A7A"/>
</linearGradient>
<linearGradient id="paint25_linear" x1="184.377" y1="30.6902" x2="255.762" y2="94.1955" gradientUnits="userSpaceOnUse">
<stop stop-color="#FFA29E"/>
<stop offset="0.13" stop-color="#FF9898"/>
<stop offset="0.35" stop-color="#FF7F87"/>
<stop offset="0.63" stop-color="#FF556C"/>
<stop offset="0.96" stop-color="#FF1B47"/>
<stop offset="1" stop-color="#FF1443"/>
</linearGradient>
<linearGradient id="paint26_linear" x1="8342.25" y1="3182.66" x2="11602.2" y2="4924.37" gradientUnits="userSpaceOnUse">
<stop stop-color="#FFA29E"/>
<stop offset="0.13" stop-color="#FF9898"/>
<stop offset="0.35" stop-color="#FF7F87"/>
<stop offset="0.63" stop-color="#FF556C"/>
<stop offset="0.96" stop-color="#FF1B47"/>
<stop offset="1" stop-color="#FF1443"/>
</linearGradient>
<linearGradient id="paint27_linear" x1="13377.6" y1="6655.8" x2="12070.4" y2="6997.11" gradientUnits="userSpaceOnUse">
<stop stop-color="#FF1443"/>
<stop offset="0.04" stop-color="#FF1B47"/>
<stop offset="0.37" stop-color="#FF556C"/>
<stop offset="0.65" stop-color="#FF7F87"/>
<stop offset="0.87" stop-color="#FF9898"/>
<stop offset="1" stop-color="#FFA29E"/>
</linearGradient>
<linearGradient id="paint28_linear" x1="11757.5" y1="4792.1" x2="10714.5" y2="5041.37" gradientUnits="userSpaceOnUse">
<stop stop-color="#FF1443"/>
<stop offset="0.04" stop-color="#FF1B47"/>
<stop offset="0.37" stop-color="#FF556C"/>
<stop offset="0.65" stop-color="#FF7F87"/>
<stop offset="0.87" stop-color="#FF9898"/>
<stop offset="1" stop-color="#FFA29E"/>
</linearGradient>
<linearGradient id="paint29_linear" x1="136.204" y1="187.202" x2="174.703" y2="235.228" gradientUnits="userSpaceOnUse">
<stop stop-color="#FF385C"/>
<stop offset="0.1" stop-color="#FF4463"/>
<stop offset="0.5" stop-color="#FF6E7C"/>
<stop offset="0.81" stop-color="#FF878B"/>
<stop offset="1" stop-color="#FF9191"/>
</linearGradient>
<linearGradient id="paint30_linear" x1="29235.6" y1="8355.33" x2="26870.3" y2="15567.5" gradientUnits="userSpaceOnUse">
<stop stop-color="#FF214E"/>
<stop offset="0.28" stop-color="#FF4C69"/>
<stop offset="0.6" stop-color="#FF7683"/>
<stop offset="0.85" stop-color="#FF8F93"/>
<stop offset="1" stop-color="#FF9999"/>
</linearGradient>
</defs>
</svg>
