<svg width="24" height="24" viewBox="0 0 24 24" fill="none" xmlns="http://www.w3.org/2000/svg">
<g clip-path="url(#clip0)">
<path d="M22.7078 5.40591L19.69 7.9927L15.4957 2.40005C15.1491 1.93856 14.4305 1.99753 14.1695 2.51953L9.95939 10.9397L6.03159 7.01194C5.68959 6.66994 5.13014 6.71972 4.84852 7.1003L1.5652 11.5464V0.782625C1.5652 0.350297 1.21467 0 0.782625 0C0.350578 0 0 0.350297 0 0.782625C0 5.51245 0 18.257 0 23.2174C0 23.6497 0.350578 24 0.782625 24H23.2174C23.6495 24 24 23.6497 24 23.2174C24 16.3051 24 11.4102 24 6C24 5.33086 23.2131 4.97273 22.7078 5.40591ZM22.4348 13.4661L19.6901 15.8188L15.4957 10.2262C15.1475 9.76261 14.4298 9.82495 14.1695 10.3456L9.95939 18.7658L6.03159 14.838C5.68678 14.4932 5.12784 14.549 4.84852 14.9264L1.5652 19.3725V14.1814L5.56795 8.7615L9.62063 12.8142C9.99881 13.193 10.6364 13.0856 10.874 12.6109L15.0031 4.35225L18.939 9.59995C19.2121 9.96403 19.7335 10.0172 20.0748 9.72455L22.4348 7.70152V13.4661Z" fill="#EC1654"/>
</g>
<defs>
<clipPath id="clip0">
<rect width="24" height="24" fill="white"/>
</clipPath>
</defs>
</svg>
