<svg width="20" height="20" viewBox="0 0 20 20" fill="none" xmlns="http://www.w3.org/2000/svg">
<path d="M10 20C4.47715 20 0 15.5228 0 10C0 4.47715 4.47715 0 10 0C15.5228 0 20 4.47715 20 10C19.9939 15.5203 15.5203 19.9939 10 20ZM10 2C5.6054 2.00111 2.03446 5.54686 2.00224 9.9413C1.97002 14.3358 5.48858 17.9336 9.8827 17.9991C14.2768 18.0647 17.9011 14.5735 18 10.18V11.963V10C17.995 5.58378 14.4162 2.00496 10 2ZM10 15L5 10L10 5L11.41 6.41L8.83 9H15V11H8.83L11.41 13.59L10 15Z" fill="white"/>
</svg>
