<svg width="24" height="24" viewBox="0 0 24 24" fill="none" xmlns="http://www.w3.org/2000/svg">
<path d="M21.6562 5.25H19.4062C18.1139 5.25 17.0625 6.30141 17.0625 7.59375V21.6562C17.0625 22.9486 18.1139 24 19.4062 24H21.6562C22.9486 24 24 22.9486 24 21.6562V7.59375C24 6.30141 22.9486 5.25 21.6562 5.25ZM22.125 21.6562C22.125 21.9147 21.9147 22.125 21.6562 22.125H19.4062C19.1478 22.125 18.9375 21.9147 18.9375 21.6562V7.59375C18.9375 7.33528 19.1478 7.125 19.4062 7.125H21.6562C21.9147 7.125 22.125 7.33528 22.125 7.59375V21.6562Z" fill="white" fill-opacity="0.7"/>
<path d="M4.59375 12.375H2.34375C1.05141 12.375 0 13.4264 0 14.7188V21.6562C0 22.9486 1.05141 24 2.34375 24H4.59375C5.88609 24 6.9375 22.9486 6.9375 21.6562V14.7188C6.9375 13.4264 5.88609 12.375 4.59375 12.375ZM5.0625 21.6562C5.0625 21.9147 4.85222 22.125 4.59375 22.125H2.34375C2.08528 22.125 1.875 21.9147 1.875 21.6562V14.7188C1.875 14.4603 2.08528 14.25 2.34375 14.25H4.59375C4.85222 14.25 5.0625 14.4603 5.0625 14.7188V21.6562Z" fill="white" fill-opacity="0.7"/>
<path d="M13.125 0H10.875C9.58266 0 8.53125 1.05141 8.53125 2.34375V21.6562C8.53125 22.9486 9.58266 24 10.875 24H13.125C14.4173 24 15.4688 22.9486 15.4688 21.6562V2.34375C15.4688 1.05141 14.4173 0 13.125 0ZM13.5938 21.6562C13.5938 21.9147 13.3835 22.125 13.125 22.125H10.875C10.6165 22.125 10.4062 21.9147 10.4062 21.6562V2.34375C10.4062 2.08528 10.6165 1.875 10.875 1.875H13.125C13.3835 1.875 13.5938 2.08528 13.5938 2.34375V21.6562Z" fill="white" fill-opacity="0.7"/>
</svg>
