<svg width="24" height="24" viewBox="0 0 24 24" fill="none" xmlns="http://www.w3.org/2000/svg">
<path d="M1 19H0H1ZM3 6V5V6ZM7 6V7C7.33435 7 7.64658 6.8329 7.83205 6.5547L7 6ZM9 3V2C8.66565 2 8.35342 2.1671 8.16795 2.4453L9 3ZM15 3L15.8321 2.4453C15.6466 2.1671 15.3344 2 15 2V3ZM17 6L16.1679 6.5547C16.3534 6.8329 16.6656 7 17 7V6ZM21 6V5V6ZM22 19C22 19.2652 21.8946 19.5196 21.7071 19.7071L23.1213 21.1213C23.6839 20.5587 24 19.7957 24 19H22ZM21.7071 19.7071C21.5196 19.8946 21.2652 20 21 20V22C21.7957 22 22.5587 21.6839 23.1213 21.1213L21.7071 19.7071ZM21 20H3V22H21V20ZM3 20C2.73478 20 2.48043 19.8946 2.29289 19.7071L0.87868 21.1213C1.44129 21.6839 2.20435 22 3 22V20ZM2.29289 19.7071C2.10536 19.5196 2 19.2652 2 19H0C0 19.7957 0.316071 20.5587 0.87868 21.1213L2.29289 19.7071ZM2 19V8H0V19H2ZM2 8C2 7.73478 2.10536 7.48043 2.29289 7.29289L0.87868 5.87868C0.316071 6.44129 0 7.20435 0 8H2ZM2.29289 7.29289C2.48043 7.10536 2.73478 7 3 7V5C2.20435 5 1.44129 5.31607 0.87868 5.87868L2.29289 7.29289ZM3 7H7V5H3V7ZM7.83205 6.5547L9.83205 3.5547L8.16795 2.4453L6.16795 5.4453L7.83205 6.5547ZM9 4H15V2H9V4ZM14.1679 3.5547L16.1679 6.5547L17.8321 5.4453L15.8321 2.4453L14.1679 3.5547ZM17 7H21V5H17V7ZM21 7C21.2652 7 21.5196 7.10536 21.7071 7.29289L23.1213 5.87868C22.5587 5.31607 21.7957 5 21 5V7ZM21.7071 7.29289C21.8946 7.48043 22 7.73478 22 8H24C24 7.20435 23.6839 6.44129 23.1213 5.87868L21.7071 7.29289ZM22 8V19H24V8H22Z" fill="white"/>
<path d="M12 17C14.2091 17 16 15.2091 16 13C16 10.7909 14.2091 9 12 9C9.79086 9 8 10.7909 8 13C8 15.2091 9.79086 17 12 17Z" stroke="white" stroke-width="2" stroke-linecap="round" stroke-linejoin="round"/>
</svg>
