<svg width="24" height="24" viewBox="0 0 24 24" fill="none" xmlns="http://www.w3.org/2000/svg">
<g clip-path="url(#clip0)">
<path d="M3.77461 5.30884V3.40408C3.77461 2.97434 3.42622 2.62595 2.99648 2.62595C2.56674 2.62595 2.21835 2.97434 2.21835 3.40408V5.30884C1.26913 5.44195 0.536133 6.25888 0.536133 7.24431V17.6943C0.536133 18.6797 1.26908 19.4967 2.21835 19.6298V21.5346C2.21835 21.9643 2.56674 22.3127 2.99648 22.3127C3.42622 22.3127 3.77461 21.9643 3.77461 21.5346V19.6298C4.72383 19.4967 5.45683 18.6798 5.45683 17.6943V7.24426C5.45683 6.25888 4.72383 5.44195 3.77461 5.30884ZM3.90056 17.6943C3.90056 17.9141 3.72175 18.093 3.50195 18.093H2.49101C2.27126 18.093 2.09239 17.9141 2.09239 17.6943V7.24426C2.09239 7.02451 2.27121 6.84565 2.49101 6.84565H3.50195C3.7217 6.84565 3.90056 7.02446 3.90056 7.24426V17.6943Z" fill="white" fill-opacity="0.7"/>
<path d="M15.7785 4.03513V2.13037C15.7785 1.70063 15.4301 1.35223 15.0004 1.35223C14.5706 1.35223 14.2222 1.70063 14.2222 2.13037V4.03513C13.273 4.16824 12.54 4.98522 12.54 5.9706V13.3622C12.54 14.3475 13.273 15.1645 14.2222 15.2976V23.2219C14.2222 23.6517 14.5706 24 15.0004 24C15.4301 24 15.7785 23.6517 15.7785 23.2219V15.2976C16.7278 15.1645 17.4608 14.3475 17.4608 13.3622V5.9706C17.4608 4.98528 16.7278 4.16829 15.7785 4.03513ZM15.9045 13.3622C15.9045 13.5819 15.7257 13.7608 15.5059 13.7608H14.4949C14.2752 13.7608 14.0963 13.582 14.0963 13.3622V5.9706C14.0963 5.75085 14.2751 5.57199 14.4949 5.57199H15.5059C15.7256 5.57199 15.9045 5.7508 15.9045 5.9706V13.3622Z" fill="white" fill-opacity="0.7"/>
<path d="M9.77656 2.68289V0.778131C9.77656 0.348395 9.42816 0 8.99843 0C8.56869 0 8.2203 0.348395 8.2203 0.778131V2.68289C7.27108 2.816 6.53809 3.63299 6.53809 4.61836V12.9491C6.53809 13.9345 7.27103 14.7514 8.2203 14.8846V16.7894C8.2203 17.2191 8.56869 17.5675 8.99843 17.5675C9.42816 17.5675 9.77656 17.2191 9.77656 16.7894V14.8846C10.7258 14.7515 11.4588 13.9346 11.4588 12.9491V4.61831C11.4588 3.63299 10.7258 2.816 9.77656 2.68289ZM9.90251 12.9491C9.90251 13.1689 9.7237 13.3477 9.5039 13.3477H8.49296C8.27321 13.3477 8.09435 13.1689 8.09435 12.9491V4.61831C8.09435 4.39857 8.27316 4.2197 8.49296 4.2197H9.5039C9.72365 4.2197 9.90251 4.39852 9.90251 4.61831V12.9491Z" fill="white" fill-opacity="0.7"/>
<path d="M21.7805 7.68715V1.84048C21.7805 1.41074 21.4321 1.06235 21.0023 1.06235C20.5726 1.06235 20.2242 1.41074 20.2242 1.84048V7.6871C19.275 7.82021 18.542 8.63719 18.542 9.62257V17.9534C18.542 18.9388 19.2749 19.7557 20.2242 19.8889V21.7936C20.2242 22.2234 20.5726 22.5718 21.0023 22.5718C21.4321 22.5718 21.7805 22.2234 21.7805 21.7936V19.8889C22.7297 19.7558 23.4627 18.9388 23.4627 17.9534V9.62257C23.4627 8.63725 22.7298 7.82021 21.7805 7.68715ZM21.9065 17.9534C21.9065 18.1731 21.7277 18.352 21.5079 18.352H20.4969C20.2771 18.352 20.0983 18.1732 20.0983 17.9534V9.62257C20.0983 9.40282 20.2771 9.22396 20.4969 9.22396H21.5079C21.7276 9.22396 21.9065 9.40277 21.9065 9.62257V17.9534Z" fill="white" fill-opacity="0.7"/>
</g>
<defs>
<clipPath id="clip0">
<rect width="24" height="24" fill="white"/>
</clipPath>
</defs>
</svg>
