<svg width="20" height="20" viewBox="0 0 20 20" fill="none" xmlns="http://www.w3.org/2000/svg">
<path d="M1.66667 3.33335V15L5.66667 12C5.95485 11.783 6.30594 11.666 6.66667 11.6667H13.3333C14.2538 11.6667 15 10.9205 15 10V3.33335C15 2.41288 14.2538 1.66669 13.3333 1.66669H3.33333C2.41286 1.66669 1.66667 2.41288 1.66667 3.33335ZM3.33333 11.6667V3.33335H13.3333V10H6.11167C5.75089 9.99902 5.3997 10.1161 5.11167 10.3334L3.33333 11.6667Z" fill="white"/>
<path d="M18.3333 18.3333V7.49998C18.3333 6.5795 17.5872 5.83331 16.6667 5.83331V15L14.8883 13.6666C14.6003 13.4494 14.2491 13.3323 13.8883 13.3333H5.83333C5.83333 14.2538 6.57952 15 7.5 15H13.3333C13.6941 14.9993 14.0452 15.1163 14.3333 15.3333L18.3333 18.3333Z" fill="white"/>
</svg>
