<svg width="14" height="14" viewBox="0 0 14 14" fill="none" xmlns="http://www.w3.org/2000/svg">
<path d="M13.0992 5.64675C12.9355 5.51427 12.663 5.29327 12.6289 5.18855C12.5942 5.07977 12.6838 4.72977 12.7376 4.5215C12.8667 4.01875 13.0275 3.39335 12.6671 2.90102C12.3084 2.41217 11.6633 2.36935 11.145 2.33462C10.9303 2.31959 10.5705 2.29585 10.4796 2.2299C10.3876 2.16337 10.2494 1.82261 10.1667 1.61838C9.96242 1.11217 9.72986 0.53825 9.16232 0.35543C8.59767 0.170887 8.08161 0.497754 7.62746 0.785273C7.42727 0.911383 7.12586 1.10232 6.99975 1.10232C6.87884 1.10232 6.5809 0.908512 6.38304 0.780078C5.94625 0.496004 5.40012 0.144254 4.82448 0.339816C4.25808 0.53248 4.02784 1.1029 3.82361 1.60507C3.74147 1.80755 3.60492 2.14541 3.51121 2.21426C3.4198 2.28193 3.05359 2.30624 2.83489 2.32071C2.28818 2.35773 1.66857 2.3994 1.32029 2.8923C0.978387 3.37653 1.13168 3.97358 1.26705 4.50063C1.32029 4.71006 1.41053 5.06066 1.37813 5.16536C1.34343 5.26544 1.07382 5.48703 0.91298 5.61951C0.506215 5.95513 0 6.37223 0 6.99706C0 7.61782 0.496398 8.03033 0.894988 8.36124C1.06796 8.50472 1.32888 8.72166 1.36418 8.82928C1.39888 8.93573 1.30864 9.28169 1.25426 9.48824C1.12235 9.99561 0.957469 10.6274 1.33178 11.1238C1.69684 11.6063 2.33901 11.6491 2.85564 11.6838C3.07029 11.6988 3.42956 11.722 3.52097 11.7885C3.61238 11.8551 3.75009 12.1952 3.8328 12.3994C4.03761 12.9057 4.26959 13.4796 4.83771 13.663C4.95168 13.7006 5.0645 13.7168 5.17442 13.7168C5.60949 13.7168 6.01098 13.4622 6.37314 13.2343C6.57273 13.1082 6.87359 12.9172 6.9997 12.9172C7.12294 12.9172 7.41913 13.1058 7.61469 13.2308C8.04858 13.5068 8.59009 13.8527 9.16459 13.656C9.73038 13.4634 9.96064 12.8935 10.1649 12.3902C10.247 12.1883 10.3836 11.8499 10.4773 11.781C10.5693 11.7133 10.9332 11.689 11.1507 11.6746C11.6934 11.6375 12.3089 11.5965 12.6624 11.1111C13.0182 10.6234 12.8655 10.0199 12.7307 9.48827C12.6781 9.28057 12.5901 8.93404 12.6219 8.82989C12.6566 8.72981 12.9262 8.50822 13.0865 8.37574C13.4938 8.04017 14 7.62247 14 6.99764C14 6.37803 13.5002 5.97247 13.0992 5.64675ZM12.3512 7.48362C12.0127 7.76189 11.6627 8.05059 11.525 8.46425C11.3844 8.88542 11.499 9.33668 11.6095 9.77289C11.6633 9.98579 11.7535 10.3416 11.7414 10.4151C11.6534 10.481 11.2907 10.5059 11.0738 10.5198C10.6439 10.5487 10.1568 10.5811 9.79404 10.8472C9.43477 11.1105 9.26062 11.5403 9.09226 11.9557C9.01012 12.1605 8.87127 12.5036 8.81398 12.5557C8.70868 12.5557 8.41422 12.3665 8.23777 12.2543C7.87388 12.0228 7.46137 11.7596 7.00027 11.7596C6.5386 11.7596 6.12262 12.0234 5.75468 12.256C5.57648 12.3683 5.27797 12.558 5.21434 12.5719C5.12468 12.5076 4.98813 12.1686 4.90599 11.9662C4.73591 11.5456 4.56004 11.1111 4.19729 10.8502C3.83688 10.5904 3.3775 10.5597 2.93262 10.5302C2.72377 10.5163 2.33442 10.4903 2.26382 10.4423C2.22794 10.3399 2.31878 9.98989 2.37374 9.78161C2.48076 9.36911 2.60285 8.90166 2.46515 8.47469C2.32687 8.04832 1.95951 7.74226 1.63494 7.47265C1.47643 7.34075 1.18079 7.09487 1.1559 7.00579C1.18193 6.89701 1.48567 6.64652 1.6488 6.51289C1.98723 6.23404 2.33726 5.94534 2.47496 5.53168C2.61671 5.10761 2.49985 4.65288 2.3876 4.2132C2.33321 4.00087 2.2418 3.64565 2.24875 3.57797C2.33726 3.51434 2.69711 3.49004 2.91233 3.47557C3.36416 3.44549 3.8322 3.41366 4.19494 3.14813C4.55421 2.88489 4.72836 2.45562 4.89672 2.04024C4.97886 1.83486 5.11831 1.49236 5.17152 1.44087C5.27855 1.44259 5.57591 1.63583 5.75353 1.75097C6.12032 1.98933 6.53688 2.25951 7.00027 2.25951C7.46137 2.25951 7.8785 1.9957 8.24529 1.76371C8.42349 1.65089 8.722 1.46173 8.78566 1.44784C8.87474 1.51207 9.01187 1.85108 9.09401 2.05356C9.26409 2.47359 9.43996 2.90805 9.80271 3.16896C10.1631 3.4293 10.6231 3.45996 11.0686 3.48946C11.2884 3.5045 11.6569 3.52938 11.7258 3.57103C11.7611 3.67286 11.6714 4.02461 11.617 4.23403C11.5111 4.64826 11.3908 5.11745 11.5291 5.54557C11.6685 5.97659 12.0416 6.27915 12.3708 6.54586C12.5212 6.6685 12.7984 6.89242 12.8412 7.00002C12.8001 7.11278 12.5091 7.35286 12.3512 7.48362Z" fill="#EC1654"/>
<path d="M9.5869 4.81768C9.34045 4.61173 8.97653 4.64528 8.77232 4.89L6.19263 7.97418L5.09513 6.87729C4.86891 6.65107 4.50327 6.65107 4.27708 6.87729C4.05087 7.1035 4.05087 7.46914 4.27708 7.69533L5.82179 9.24003C5.92996 9.34937 6.07751 9.40953 6.23083 9.40953C6.23892 9.40953 6.24761 9.40953 6.25571 9.40838C6.41884 9.40144 6.56986 9.32624 6.67399 9.20185L9.65919 5.63225C9.864 5.38697 9.8322 5.02248 9.5869 4.81768Z" fill="#EC1654"/>
</svg>
