<svg width="16" height="16" viewBox="0 0 16 16" fill="none" xmlns="http://www.w3.org/2000/svg">
<path d="M9.33347 14.6667H2.6668C2.30952 14.6791 1.96312 14.5426 1.71033 14.2898C1.45754 14.037 1.32105 13.6906 1.33347 13.3334V6.66669C1.32105 6.30941 1.45754 5.96301 1.71033 5.71022C1.96312 5.45743 2.30952 5.32094 2.6668 5.33336H5.33347V2.66669C5.32105 2.30941 5.45754 1.96301 5.71033 1.71022C5.96312 1.45743 6.30952 1.32094 6.66681 1.33336H13.3335C13.6907 1.32094 14.0371 1.45743 14.2899 1.71022C14.5427 1.96301 14.6792 2.30941 14.6668 2.66669V9.33335C14.679 9.69055 14.5425 10.0369 14.2897 10.2896C14.037 10.5424 13.6907 10.6789 13.3335 10.6667H10.6668V13.3334C10.679 13.6906 10.5425 14.0369 10.2897 14.2896C10.037 14.5424 9.69067 14.6789 9.33347 14.6667ZM2.6668 6.66669V13.3334H9.33347V10.6667H6.66681C6.30957 10.6789 5.96329 10.5424 5.71055 10.2896C5.4578 10.0369 5.32125 9.69055 5.33347 9.33335V6.66669H2.6668ZM6.66681 2.66669V9.33335H13.3335V2.66669H6.66681Z" fill="white" fill-opacity="0.7"/>
</svg>
