<svg width="20" height="20" viewBox="0 0 20 20" fill="none" xmlns="http://www.w3.org/2000/svg">
<path d="M16.3542 18.3333L14.6525 16.8333L13.6933 15.9417L12.6792 15L13.0958 16.4658H4.12251C3.22386 16.4626 2.49771 15.732 2.50001 14.8333V4.13083C2.49862 3.23282 3.22451 2.50322 4.12251 2.5H14.7317C15.6297 2.50322 16.3556 3.23282 16.3542 4.13083V18.3333ZM12.5833 11.2567C12.232 11.7279 11.7261 12.0607 11.1542 12.1967C11.3892 12.4967 11.6725 12.8358 11.675 12.8392C12.6309 12.8593 13.5361 12.4098 14.0975 11.6358C14.0687 10.0314 13.6791 8.45408 12.9575 7.02083C12.3222 6.52231 11.5488 6.23136 10.7425 6.1875H10.7333L10.6225 6.31417C11.3427 6.50763 12.0144 6.85 12.5942 7.31917C11.8565 6.91368 11.0471 6.65554 10.2108 6.55917C9.67933 6.50014 9.14275 6.50545 8.6125 6.575C8.575 6.57574 8.53766 6.57964 8.50083 6.58667H8.4775C7.85613 6.65821 7.24985 6.82693 6.68084 7.08667C6.39584 7.2175 6.22084 7.3125 6.21334 7.31583C6.20584 7.31917 6.21334 7.31583 6.21334 7.31C6.82825 6.82637 7.53765 6.47692 8.29584 6.28417L8.21251 6.18917H8.20751C7.40117 6.23313 6.62786 6.52407 5.99251 7.0225C5.26826 8.45475 4.87847 10.0328 4.85251 11.6375C5.40696 12.4166 6.31334 12.8679 7.26917 12.8408C7.26917 12.8408 7.56751 12.4775 7.80001 12.1833C7.24251 12.0433 6.75127 11.7132 6.41084 11.25C6.41667 11.2542 6.49917 11.31 6.63251 11.3833C6.64146 11.3938 6.65254 11.4024 6.66501 11.4083C6.67556 11.4157 6.68671 11.4221 6.69834 11.4275C6.71152 11.4335 6.72408 11.4408 6.73584 11.4492C6.92176 11.5517 7.11475 11.6408 7.31334 11.7158C7.6909 11.8653 8.08145 11.9797 8.48 12.0575C8.829 12.1233 9.18325 12.1568 9.53833 12.1575C9.87125 12.1575 10.2035 12.1268 10.5308 12.0658C10.9251 11.9966 11.3101 11.8825 11.6783 11.7258C11.9965 11.6035 12.3 11.4461 12.5833 11.2567ZM10.885 10.9008C10.5224 10.9324 10.1777 10.7383 10.0167 10.4118C9.85591 10.0854 9.91183 9.69367 10.1577 9.42533C10.4037 9.15708 10.7891 9.06725 11.1282 9.19917C11.4674 9.33108 11.6908 9.65775 11.6908 10.0217C11.7092 10.4866 11.349 10.8793 10.8842 10.9008H10.885ZM7.99501 10.9008C7.53905 10.8611 7.18914 10.4793 7.18914 10.0217C7.18914 9.564 7.53905 9.18225 7.99501 9.1425C8.20505 9.14317 8.40583 9.22883 8.55166 9.38C8.71716 9.55175 8.80716 9.78242 8.80166 10.0208C8.821 10.4866 8.45983 10.8801 7.99417 10.9008H7.99501Z" fill="white"/>
</svg>
