<svg width="20" height="20" viewBox="0 0 20 20" fill="none" xmlns="http://www.w3.org/2000/svg">
<path d="M5.83333 6.66667C5.83333 4.36548 7.69882 2.5 10 2.5C12.3012 2.5 14.1667 4.36548 14.1667 6.66667C14.1667 8.96783 12.3012 10.8333 10 10.8333C7.69882 10.8333 5.83333 8.96783 5.83333 6.66667ZM10 9.16667C11.3807 9.16667 12.5 8.04738 12.5 6.66667C12.5 5.28596 11.3807 4.16667 10 4.16667C8.61925 4.16667 7.5 5.28596 7.5 6.66667C7.5 8.04738 8.61925 9.16667 10 9.16667Z" fill="white"/>
<path d="M5.28596 13.6193C4.03571 14.8695 3.33333 16.5653 3.33333 18.3334H5C5 17.0073 5.52678 15.7355 6.46447 14.7979C7.40215 13.8601 8.67391 13.3334 10 13.3334C11.3261 13.3334 12.5978 13.8601 13.5355 14.7979C14.4732 15.7355 15 17.0073 15 18.3334H16.6667C16.6667 16.5653 15.9642 14.8695 14.7141 13.6193C13.4638 12.3691 11.7681 11.6667 10 11.6667C8.23189 11.6667 6.5362 12.3691 5.28596 13.6193Z" fill="white"/>
</svg>
