<svg width="20" height="20" viewBox="0 0 20 20" fill="none" xmlns="http://www.w3.org/2000/svg">
<path d="M9.99175 18.3333C5.39047 18.3287 1.66368 14.5957 1.66675 9.99442C1.66982 5.39316 5.40157 1.66513 10.0028 1.66666C14.6042 1.6682 18.3334 5.39871 18.3334 10C18.3307 14.6045 14.5963 18.3352 9.99175 18.3333ZM3.33342 10.1433C3.37285 13.811 6.36767 16.7579 10.0355 16.7383C13.7034 16.7185 16.6663 13.7396 16.6663 10.0717C16.6663 6.40375 13.7034 3.42481 10.0355 3.40499C6.36767 3.38537 3.37285 6.3323 3.33342 10V10.1433ZM10.8334 14.1667H9.16675V12.5H10.8334V14.1667ZM10.8334 10.8333H9.16675V5.83333H10.8334V10.8333Z" fill="#F1CF54"/>
</svg>
