<svg width="18" height="12" viewBox="0 0 18 12" fill="none" xmlns="http://www.w3.org/2000/svg">
<path d="M9.00033 11.8333C7.63358 11.8503 6.28091 11.5553 5.04533 10.9708C4.08757 10.5035 3.22753 9.85808 2.51116 9.06917C1.75235 8.25342 1.15488 7.30133 0.750325 6.26333L0.666992 6L0.754492 5.73667C1.15934 4.6995 1.75553 3.74771 2.51199 2.93082C3.22811 2.14191 4.08786 1.49653 5.04533 1.02915C6.28092 0.444641 7.63358 0.149657 9.00033 0.166649C10.3671 0.149691 11.7197 0.444666 12.9553 1.02915C13.9131 1.49642 14.7732 2.14181 15.4895 2.93082C16.2497 3.74544 16.8474 4.69775 17.2503 5.73667L17.3337 6L17.2462 6.26333C15.9388 9.6665 12.6455 11.8911 9.00033 11.8333ZM9.00033 1.83332C6.16355 1.74442 3.55984 3.39589 2.43116 6C3.55966 8.60425 6.16348 10.2557 9.00033 10.1667C11.8371 10.2553 14.4407 8.60392 15.5695 6C14.4423 3.39463 11.8376 1.74255 9.00033 1.83332ZM9.00033 8.5C7.79808 8.50792 6.75813 7.66442 6.5178 6.4865C6.27746 5.3085 6.90388 4.125 8.01316 3.66137C9.12241 3.19773 10.4047 3.58342 11.0741 4.58208C11.7436 5.58075 11.6132 6.91342 10.7628 7.76333C10.2972 8.23433 9.66266 8.49958 9.00033 8.5Z" fill="white"/>
</svg>
