<svg width="20" height="20" viewBox="0 0 20 20" fill="none" xmlns="http://www.w3.org/2000/svg">
<path d="M1.66833 10.0017C1.66931 14.1012 4.65034 17.5918 8.69921 18.2342V12.41H6.585V10.0017H8.70171V8.16838C8.60704 7.29966 8.90379 6.43388 9.51138 5.80583C10.119 5.17778 10.9745 4.85256 11.8459 4.91838C12.4713 4.92849 13.0951 4.98419 13.7125 5.08505V7.13421H12.6592C12.2965 7.08672 11.932 7.20649 11.6681 7.45977C11.4043 7.71306 11.2698 8.07245 11.3025 8.43668V10.0017H13.6117L13.2425 12.4108H11.3025V18.2342C15.6812 17.5422 18.7517 13.5432 18.2896 9.13426C17.8275 4.72535 13.9944 1.44999 9.56738 1.68103C5.1403 1.91207 1.66904 5.56864 1.66833 10.0017Z" fill="white"/>
</svg>
