<svg width="20" height="20" viewBox="0 0 20 20" fill="none" xmlns="http://www.w3.org/2000/svg">
<path d="M10.0217 1.66666C5.94416 1.66613 2.46823 4.62332 1.81539 8.64824C1.16254 12.6732 3.52555 16.5775 7.39422 17.8658C7.81089 17.9408 7.96005 17.685 7.96005 17.465C7.96005 17.2675 7.95339 16.7442 7.95089 16.0483C5.63839 16.5483 5.15005 14.9333 5.15005 14.9333C4.99781 14.4308 4.67053 13.9994 4.22755 13.7175C3.47755 13.2017 4.28505 13.2133 4.28505 13.2133C4.81895 13.2865 5.28885 13.6029 5.55755 14.07C5.785 14.4836 6.16818 14.7892 6.62197 14.9188C7.07576 15.0486 7.56256 14.9917 7.97422 14.7608C8.0129 14.3392 8.2005 13.9451 8.50337 13.6492C6.65839 13.44 4.71839 12.7267 4.71839 9.54082C4.70815 8.71682 5.01413 7.92024 5.57339 7.31499C5.32035 6.59775 5.35015 5.81103 5.65672 5.11499C5.65672 5.11499 6.35422 4.89082 7.94172 5.96582C9.30329 5.5925 10.7402 5.5925 12.1017 5.96582C13.69 4.88999 14.3867 5.11499 14.3867 5.11499C14.6947 5.81071 14.7245 6.59797 14.47 7.31499C15.0314 7.92018 15.3371 8.71882 15.3234 9.54416C15.3234 12.7383 13.3817 13.44 11.53 13.6458C11.9295 14.0542 12.1344 14.6144 12.0925 15.1842C12.0925 16.2958 12.0825 17.1925 12.0825 17.465C12.0825 17.6875 12.2309 17.9458 12.655 17.8642C16.5221 16.5737 18.8826 12.6692 18.2284 8.64524C17.5742 4.62136 14.0985 1.66572 10.0217 1.66666Z" fill="white"/>
</svg>
