<svg width="20" height="20" viewBox="0 0 20 20" fill="none" xmlns="http://www.w3.org/2000/svg">
<path d="M10.0001 18.3333C5.39981 18.3282 1.6718 14.6002 1.66675 10V9.83333C1.75836 5.25376 5.52891 1.60661 10.109 1.66739C14.6891 1.72815 18.3615 5.47405 18.3316 10.0544C18.3017 14.6348 14.5806 18.3324 10.0001 18.3333ZM9.98675 16.6667H10.0001C13.6807 16.663 16.6619 13.6772 16.6601 9.99666C16.6582 6.31606 13.674 3.33332 9.99341 3.33332C6.31281 3.33332 3.32859 6.31606 3.32675 9.99666C3.32491 13.6772 6.30616 16.663 9.98675 16.6667ZM10.8334 15H9.16675V13.3333H10.8334V15ZM10.8334 12.5H9.16675C9.14042 11.4147 9.70517 10.4007 10.6417 9.85166C11.1917 9.42999 11.6667 9.06666 11.6667 8.33332C11.6667 7.41285 10.9206 6.66665 10.0001 6.66665C9.07958 6.66665 8.33342 7.41285 8.33342 8.33332H6.66675V8.25832C6.68015 7.06744 7.32786 5.97415 8.36591 5.39032C9.40391 4.80648 10.6746 4.82077 11.6992 5.42782C12.7238 6.03486 13.3468 7.14244 13.3334 8.33332C13.2737 9.2325 12.7915 10.0502 12.0334 10.5375C11.3482 10.9677 10.904 11.694 10.8334 12.5Z" fill="white" fill-opacity="0.7"/>
</svg>
