<svg width="24" height="24" viewBox="0 0 24 24" fill="none" xmlns="http://www.w3.org/2000/svg">
<g clip-path="url(#clip0)">
<path d="M23.2183 22.4347H2.05428C2.5145 21.3708 3.08914 19.7851 3.8457 17.6611C4.48461 15.8672 5.18815 13.8932 5.69252 12.762C6.02004 12.9357 6.38763 13.0434 6.78354 13.0434C7.18694 13.0434 7.56119 12.9318 7.89311 12.7518C8.20314 13.3836 8.50047 14.1548 8.79048 14.912C9.17959 15.9279 9.58051 16.9718 10.0485 17.7703C9.96761 18.0075 9.91398 18.2574 9.91398 18.5216C9.91398 19.8163 10.9672 20.8695 12.2618 20.8695C13.5564 20.8695 14.6096 19.8163 14.6096 18.5216C14.6096 18.1897 14.5385 17.8746 14.4137 17.5881C15.153 16.1173 15.4512 13.8844 15.7601 11.5236C16.0014 9.67759 16.2498 7.783 16.7104 6.5344C17.0226 6.68819 17.369 6.78255 17.7401 6.78255C18.1669 6.78255 18.5622 6.65941 18.9074 6.45954C19.4932 7.61941 20.0551 9.48151 20.51 11.7879C19.7949 12.1908 19.3053 12.9483 19.3053 13.826C19.3053 15.1206 20.3585 16.1738 21.6531 16.1738C22.9477 16.1738 24.0009 15.1206 24.0009 13.826C24.0009 12.668 23.1564 11.7092 22.052 11.5185C21.6236 9.33249 20.9448 6.71313 19.9642 5.15112C20.0377 4.92387 20.0879 4.68617 20.0879 4.43473C20.0879 3.1401 19.0347 2.08691 17.7401 2.08691C16.4454 2.08691 15.3922 3.1401 15.3922 4.43473C15.3922 4.73595 15.4543 5.02175 15.558 5.28654C14.8151 6.72794 14.5168 8.95984 14.2081 11.3205C13.9626 13.1974 13.7063 15.1145 13.23 16.3886C12.934 16.2537 12.6079 16.1739 12.2618 16.1739C11.8502 16.1739 11.4688 16.2896 11.1321 16.4764C10.8288 15.8541 10.5368 15.0963 10.2518 14.3521C9.86111 13.332 9.45873 12.2841 8.98703 11.4786C9.07483 11.2325 9.1314 10.9714 9.1314 10.6956C9.1314 9.40098 8.07822 8.3478 6.78358 8.3478C5.48895 8.3478 4.43576 9.40098 4.43576 10.6956C4.43576 10.9704 4.49206 11.2304 4.5792 11.4757C4.05809 12.4418 3.37039 14.3308 2.37125 17.136C2.10777 17.8759 1.83313 18.6466 1.56622 19.3759V0.782622C1.56618 0.350295 1.21565 0 0.7836 0C0.351554 0 0.000976562 0.350295 0.000976562 0.782622V23.2173C0.000976562 23.2344 0.00496093 23.2503 0.00599217 23.2671C0.00805467 23.3 0.00964842 23.333 0.0158359 23.3654C0.020664 23.3902 0.0291015 23.4134 0.0362265 23.4374C0.0434452 23.462 0.0493046 23.4869 0.0589608 23.5108C0.0686639 23.5348 0.0816482 23.5566 0.0935544 23.5793C0.105273 23.6016 0.115726 23.6244 0.129601 23.6456C0.143757 23.6672 0.160867 23.6864 0.177039 23.7064C0.192695 23.7259 0.206992 23.7461 0.22471 23.7642C0.24721 23.7872 0.272851 23.8067 0.29807 23.8268C0.311757 23.8378 0.323101 23.8506 0.337679 23.8607C0.338757 23.8614 0.339976 23.8616 0.341101 23.8624C0.398897 23.9021 0.463397 23.9316 0.530991 23.9548C0.546834 23.9602 0.562256 23.9651 0.578334 23.9694C0.643584 23.9873 0.711037 23.9998 0.781959 23.9999C0.782287 23.9999 0.782568 24 0.78299 24C0.783037 24 0.783084 24 0.783271 24C0.783318 24 0.783365 24 0.783553 24H23.2183C23.6503 24 24.0009 23.6498 24.0009 23.2174C24.0009 22.7851 23.6504 22.4347 23.2183 22.4347Z" fill="white" fill-opacity="0.7"/>
</g>
<defs>
<clipPath id="clip0">
<rect width="24" height="24" fill="white"/>
</clipPath>
</defs>
</svg>
