<svg width="20" height="20" viewBox="0 0 20 20" fill="none" xmlns="http://www.w3.org/2000/svg">
<path d="M10.8333 17.5H7.5V7.5H10.8333V9.16667C11.5438 8.26271 12.6213 7.72381 13.7708 7.6975C15.838 7.70898 17.506 9.39117 17.5 11.4583V17.5H14.1667V11.875C14.0333 10.9438 13.2348 10.253 12.2942 10.255C11.8827 10.268 11.4943 10.4482 11.2187 10.7538C10.943 11.0596 10.8038 11.4644 10.8333 11.875V17.5ZM5.83333 17.5H2.5V7.5H5.83333V17.5ZM4.16667 5.83333C3.24619 5.83333 2.5 5.08714 2.5 4.16667C2.5 3.24619 3.24619 2.5 4.16667 2.5C5.08714 2.5 5.83333 3.24619 5.83333 4.16667C5.83333 4.60869 5.65774 5.03262 5.34517 5.34517C5.03262 5.65774 4.60869 5.83333 4.16667 5.83333Z" fill="white"/>
</svg>
