<svg width="24" height="25" viewBox="0 0 24 25" fill="none" xmlns="http://www.w3.org/2000/svg">
<path d="M18.677 20.107L12.962 14.391C10.4196 16.1985 6.91642 15.7564 4.90285 13.3739C2.88929 10.9915 3.03714 7.46361 5.24298 5.25802C7.44824 3.05147 10.9765 2.90298 13.3594 4.91644C15.7422 6.92989 16.1846 10.4335 14.377 12.976L20.092 18.692L18.678 20.106L18.677 20.107ZM9.48498 5.50001C7.58868 5.49958 5.95267 6.8307 5.56745 8.68745C5.18224 10.5442 6.15369 12.4163 7.89366 13.1703C9.63362 13.9242 11.6639 13.3529 12.7552 11.8021C13.8466 10.2513 13.699 8.14734 12.402 6.76402L13.007 7.36402L12.325 6.68402L12.313 6.67202C11.5648 5.9192 10.5464 5.49715 9.48498 5.50001Z" fill="white"/>
</svg>
