<svg width="18" height="18" viewBox="0 0 18 18" fill="none" xmlns="http://www.w3.org/2000/svg">
<path d="M15.677 17.107L9.962 11.391C7.4196 13.1985 3.91642 12.7564 1.90285 10.3739C-0.11071 7.9915 0.0371398 4.46361 2.24298 2.25802C4.44824 0.0514663 7.9765 -0.0970236 10.3594 1.91644C12.7422 3.92989 13.1846 7.43347 11.377 9.976L17.092 15.692L15.678 17.106L15.677 17.107ZM6.48498 2.50001C4.58868 2.49958 2.95267 3.8307 2.56745 5.68745C2.18224 7.5442 3.15369 9.4163 4.89366 10.1703C6.63362 10.9242 8.6639 10.3529 9.7552 8.8021C10.8466 7.25129 10.699 5.14734 9.402 3.76402L10.007 4.36402L9.325 3.68402L9.313 3.67202C8.5648 2.9192 7.5464 2.49715 6.48498 2.50001Z" fill="white"/>
</svg>
