<svg width="32" height="32" viewBox="0 0 32 32" fill="none" xmlns="http://www.w3.org/2000/svg">
<path d="M31 19.9998C30.448 19.9998 30 20.4478 30 20.9998V27.9998H2V15.9998H13C13.552 15.9998 14 15.5518 14 14.9998C14 14.4478 13.552 13.9998 13 13.9998H2V9.99976H13C13.552 9.99976 14 9.55176 14 8.99976C14 8.44776 13.552 7.99976 13 7.99976H2C0.896 7.99976 0 8.89576 0 9.99976V27.9998C0 29.1038 0.896 29.9998 2 29.9998H30C31.104 29.9998 32 29.1038 32 27.9998V20.9998C32 20.4478 31.552 19.9998 31 19.9998Z" fill="#21CD47"/>
<path d="M9 19.9998H5C4.448 19.9998 4 20.4478 4 20.9998C4 21.5518 4.448 21.9998 5 21.9998H9C9.552 21.9998 10 21.5518 10 20.9998C10 20.4478 9.552 19.9998 9 19.9998Z" fill="#21CD47"/>
<path d="M31.394 5.07974L24.394 2.07974C24.14 1.97374 23.858 1.97374 23.604 2.07974L16.604 5.07974C16.238 5.23774 16 5.59974 16 5.99974V9.99974C16 15.5017 18.034 18.7177 23.502 21.8677C23.656 21.9557 23.828 21.9997 24 21.9997C24.172 21.9997 24.344 21.9557 24.498 21.8677C29.966 18.7257 32 15.5097 32 9.99974V5.99974C32 5.59974 31.762 5.23774 31.394 5.07974ZM30 9.99974C30 14.6177 28.472 17.1597 24 19.8397C19.528 17.1537 18 14.6117 18 9.99974V6.65974L24 4.08774L30 6.65974V9.99974Z" fill="#21CD47"/>
<path d="M27.626 8.21777C27.196 7.87777 26.568 7.94377 26.22 8.37377L23.076 12.3058L21.832 10.4458C21.522 9.98577 20.9 9.86377 20.446 10.1678C19.988 10.4738 19.862 11.0958 20.168 11.5538L22.168 14.5538C22.346 14.8198 22.638 14.9838 22.958 14.9998C22.972 14.9998 22.988 14.9998 23 14.9998C23.302 14.9998 23.59 14.8638 23.782 14.6238L27.782 9.62377C28.126 9.19177 28.058 8.56377 27.626 8.21777Z" fill="#21CD47"/>
</svg>
