<svg width="28" height="28" viewBox="0 0 28 28" fill="none" xmlns="http://www.w3.org/2000/svg">
<path d="M14 25.6666C7.55672 25.6666 2.33337 20.4432 2.33337 14C2.33337 7.55665 7.55672 2.33331 14 2.33331C20.4433 2.33331 25.6667 7.55665 25.6667 14C25.6596 20.4403 20.4404 25.6595 14 25.6666ZM13.9814 23.3333H14C19.1529 23.3282 23.3266 19.1481 23.324 13.9953C23.3215 8.84249 19.1435 4.66665 13.9907 4.66665C8.83787 4.66665 4.65995 8.84249 4.65737 13.9953C4.6548 19.1481 8.82855 23.3282 13.9814 23.3333ZM11.6667 19.8333L7.00004 15.1666L8.64504 13.5216L11.6667 16.5316L19.355 8.84331L21 10.5L11.6667 19.8333Z" fill="#21CD47"/>
</svg>
