<svg width="14" height="4" viewBox="0 0 14 4" fill="none" xmlns="http://www.w3.org/2000/svg">
<path d="M11.9997 3.66668C11.0792 3.66668 10.333 2.92051 10.333 2.00001C10.333 1.07951 11.0792 0.333344 11.9997 0.333344C12.9202 0.333344 13.6663 1.07951 13.6663 2.00001C13.6663 2.44201 13.4908 2.86593 13.1782 3.17851C12.8656 3.49109 12.4417 3.66668 11.9997 3.66668ZM6.99967 3.66668C6.07917 3.66668 5.33301 2.92051 5.33301 2.00001C5.33301 1.07951 6.07917 0.333344 6.99967 0.333344C7.92017 0.333344 8.66634 1.07951 8.66634 2.00001C8.66634 2.44201 8.49076 2.86593 8.17817 3.17851C7.86559 3.49109 7.44167 3.66668 6.99967 3.66668ZM1.99967 3.66668C1.0792 3.66668 0.333008 2.92051 0.333008 2.00001C0.333008 1.07951 1.0792 0.333344 1.99967 0.333344C2.92015 0.333344 3.66634 1.07951 3.66634 2.00001C3.66634 2.44201 3.49075 2.86593 3.17818 3.17851C2.86562 3.49109 2.4417 3.66668 1.99967 3.66668Z" fill="white"/>
</svg>
