<svg width="26" height="26" viewBox="0 0 26 26" fill="none" xmlns="http://www.w3.org/2000/svg">
<path d="M12.9994 23.8333C7.64415 23.7627 3.32 19.4386 3.24942 14.0833C3.32 8.72807 7.64415 4.40393 12.9994 4.33334C18.3546 4.40393 22.6789 8.72807 22.7494 14.0833C22.6789 19.4386 18.3546 23.7627 12.9994 23.8333ZM12.9994 6.5C8.83418 6.55484 5.47092 9.9181 5.41609 14.0833C5.47092 18.2485 8.83418 21.6119 12.9994 21.6667C17.1646 21.6119 20.5279 18.2485 20.5827 14.0833C20.5279 9.9181 17.1646 6.55484 12.9994 6.5ZM18.4161 15.1667H11.9161V8.66667H14.0827V13H18.4161V15.1667ZM21.9824 7.267L18.7227 4.017L20.2491 2.48192L23.5099 5.73192L21.9824 7.26592V7.267ZM4.01534 7.267L2.48242 5.73192L5.72267 2.48192L7.25559 4.017L4.01751 7.267H4.01534Z" fill="#EC1654"/>
</svg>
