<svg width="24" height="24" viewBox="0 0 24 24" fill="none" xmlns="http://www.w3.org/2000/svg">
<path d="M12 23.6667C5.55665 23.6667 0.333313 18.4433 0.333313 12C0.333313 5.55672 5.55665 0.333374 12 0.333374C18.4432 0.333374 23.6666 5.55672 23.6666 12C23.6595 18.4404 18.4403 23.6596 12 23.6667ZM11.9813 21.3334H12C17.1528 21.3282 21.3265 17.1482 21.324 11.9954C21.3214 6.84255 17.1435 2.66671 11.9906 2.66671C6.83781 2.66671 2.65989 6.84255 2.65731 11.9954C2.65473 17.1482 6.82849 21.3282 11.9813 21.3334ZM9.66665 17.8334L4.99998 13.1667L6.64498 11.5217L9.66665 14.5317L17.355 6.84337L19 8.50004L9.66665 17.8334Z" fill="#21CD47"/>
</svg>
