<svg width="36" height="36" viewBox="0 0 36 36" fill="none" xmlns="http://www.w3.org/2000/svg">
<circle cx="18" cy="18" r="18" fill="white"/>
<circle cx="18" cy="18" r="14" fill="#EC1654"/>
<path d="M22.2323 14.7834C22.4377 14.7834 22.5327 14.632 22.4437 14.447L21.5949 12.6838C21.5059 12.4988 21.2651 12.3474 21.0597 12.3474H15.0281C14.8227 12.3474 14.5819 12.4988 14.4927 12.6836L13.6431 14.447C13.5539 14.632 13.6491 14.7834 13.8543 14.7834H22.2323Z" fill="white"/>
<path d="M26.2998 14.7834C26.5052 14.7834 26.5632 14.6564 26.4288 14.5012L24.8096 12.6298C24.6752 12.4746 24.3974 12.3476 24.192 12.3476H22.6146C22.4092 12.3476 22.3142 12.499 22.4034 12.6838L23.254 14.4474C23.3432 14.6324 23.5842 14.7836 23.7894 14.7836H26.2998V14.7834Z" fill="white"/>
<path d="M13.597 12.6836C13.6862 12.4986 13.5912 12.3474 13.3858 12.3474H11.8072C11.6018 12.3474 11.324 12.4744 11.1896 12.6296L9.57021 14.501C9.43581 14.6562 9.49401 14.7832 9.69921 14.7832H12.2106C12.416 14.7832 12.6568 14.6318 12.746 14.447L13.597 12.6836Z" fill="white"/>
<path d="M9.68571 15.468C9.48031 15.468 9.41911 15.5978 9.54951 15.7564L16.4489 24.1452C16.5793 24.3038 16.6161 24.2808 16.5307 24.094L12.7371 15.8074C12.6517 15.6208 12.4137 15.468 12.2085 15.468H9.68571Z" fill="white"/>
<path d="M23.7924 15.468C23.587 15.468 23.3492 15.6208 23.2636 15.8074L19.4676 24.094C19.382 24.2806 19.4188 24.3036 19.5492 24.1452L26.4504 15.7564C26.5808 15.5978 26.5196 15.4682 26.3142 15.4682H23.7924V15.468Z" fill="white"/>
<path d="M18.1888 18.2496C17.9914 18.1928 17.9904 18.0962 18.1864 18.035L21.6256 16.9588C21.8216 16.8974 22.0518 16.6946 22.1374 16.508L22.4584 15.8074C22.544 15.6208 22.4458 15.468 22.2406 15.468H13.8486C13.6432 15.468 13.5452 15.6208 13.6308 15.8074L15.0362 18.8762C15.1216 19.0628 15.3552 19.2538 15.5552 19.3006L18.8818 20.0782C19.0818 20.125 19.0974 20.2428 18.9166 20.3402L16.6702 21.5496C16.4894 21.647 16.4114 21.8792 16.497 22.066L17.8888 25.105C17.9742 25.2916 18.1142 25.2916 18.1996 25.105L20.8176 19.3896C20.9032 19.203 20.8116 19.0038 20.6142 18.947L18.1888 18.2496Z" fill="white"/>
</svg>
