<svg width="18" height="18" viewBox="0 0 18 18" fill="none" xmlns="http://www.w3.org/2000/svg">
<path d="M8.99996 17.3333C4.39968 17.3282 0.671676 13.6002 0.666626 8.99998V8.83332C0.758234 4.25375 4.52878 0.6066 9.10888 0.667375C13.689 0.728141 17.3614 4.47404 17.3315 9.0544C17.3015 13.6348 13.5805 17.3324 8.99996 17.3333ZM8.98663 15.6667H8.99996C12.6805 15.663 15.6618 12.6772 15.66 8.99665C15.6581 5.31605 12.6739 2.33331 8.99329 2.33331C5.31269 2.33331 2.32847 5.31605 2.32663 8.99665C2.32478 12.6772 5.30603 15.663 8.98663 15.6667ZM9.83329 14H8.16663V12.3333H9.83329V14ZM9.83329 11.5H8.16663C8.14029 10.4147 8.70504 9.40065 9.64163 8.85165C10.1916 8.42998 10.6666 8.06665 10.6666 7.33331C10.6666 6.41283 9.92046 5.66664 8.99996 5.66664C8.07946 5.66664 7.33329 6.41283 7.33329 7.33331H5.66663V7.25831C5.68003 6.06743 6.32773 4.97414 7.36579 4.39031C8.40379 3.80647 9.67446 3.82076 10.6991 4.42781C11.7237 5.03485 12.3467 6.14243 12.3333 7.33331C12.2736 8.23248 11.7914 9.05015 11.0333 9.53748C10.348 9.96765 9.90388 10.694 9.83329 11.5Z" fill="white" fill-opacity="0.7"/>
</svg>
