<svg width="26" height="30" viewBox="0 0 26 30" fill="none" xmlns="http://www.w3.org/2000/svg">
<path d="M13 29.6667L0.333374 22.3333V7.66668L13 0.333344L25.6667 7.66668V22.3333L13 29.6667ZM13 3.41601L3.00004 9.20401V20.796L13 26.5853L23 20.796V9.20401L13 3.41468V3.41601ZM13 20.3333C11.586 20.3293 10.2306 19.7679 9.22804 18.7707C7.70303 17.2452 7.24704 14.9513 8.07268 12.9585C8.89832 10.9658 10.843 9.66668 13 9.66668C14.4138 9.67046 15.7687 10.232 16.7707 11.2293C18.8527 13.312 18.8527 16.688 16.7707 18.7707C15.7686 19.7676 14.4136 20.3291 13 20.3333ZM13 12.3333C11.7278 12.3331 10.6326 13.2315 10.3842 14.4792C10.1357 15.7269 10.8032 16.9764 11.9786 17.4635C13.1538 17.9505 14.5095 17.5396 15.2164 16.4819C15.9235 15.4243 15.7848 14.0144 14.8854 13.1147C14.3864 12.6131 13.7076 12.3317 13 12.3333Z" fill="white"/>
</svg>
