<svg width="24" height="24" viewBox="0 0 24 24" fill="none" xmlns="http://www.w3.org/2000/svg">
<path d="M14.2445 12.1237C14.5758 12.1237 14.8444 11.8552 14.8444 11.5239C14.8444 11.1925 14.5758 10.924 14.2445 10.924H10.6293L11.0264 9.98002C12.1864 7.22216 14.8692 5.44008 17.8609 5.44008H17.9147C18.2459 5.44008 18.5145 5.1716 18.5145 4.84026C18.5145 4.50892 18.2459 4.24045 17.9147 4.24045H17.8609C14.3851 4.24045 11.2682 6.31076 9.92052 9.51489L9.32791 10.924H6.82388C6.49263 10.924 6.22407 11.1924 6.22407 11.5238C6.22407 11.8551 6.49263 12.1236 6.82388 12.1236H8.82343L8.02591 14.0198C6.86595 16.7777 4.18318 18.5598 1.19139 18.5598H0.599814C0.268557 18.5598 0 18.8282 0 19.1596C0 19.4909 0.268557 19.7594 0.599814 19.7594H1.19131C4.66719 19.7594 7.78407 17.6891 9.13173 14.4849L10.1249 12.1237H14.2445Z" fill="white"/>
<path d="M23.8671 18.7842L20.9442 15.1434L23.8449 11.9255C24.0667 11.6795 24.047 11.3002 23.801 11.0784C23.555 10.8566 23.1757 10.8763 22.9539 11.1223L20.1835 14.1957L17.7371 11.1484C17.5296 10.8902 17.1522 10.8488 16.8938 11.0562C16.6355 11.2636 16.5942 11.641 16.8016 11.8994L19.3698 15.0984L18.7086 15.832C17.146 17.5656 14.9111 18.5599 12.5771 18.5599H12.5373C12.2061 18.5599 11.9375 18.8283 11.9375 19.1597C11.9375 19.491 12.2061 19.7595 12.5373 19.7595H12.5771C15.2503 19.7595 17.81 18.6207 19.5997 16.6352L20.1306 16.0462L22.9318 19.5352C23.0503 19.6829 23.2243 19.7596 23.3999 19.7596C23.5317 19.7596 23.6643 19.7164 23.775 19.6275C24.0332 19.42 24.0744 19.0425 23.8671 18.7842Z" fill="white"/>
</svg>
