<svg width="287" height="72" viewBox="0 0 287 72" fill="none" xmlns="http://www.w3.org/2000/svg">
<path d="M266 63H236V57H242V54H224C220.686 54 218 51.3138 218 48V15C218 11.6863 220.686 9 224 9H278C281.314 9 284 11.6863 284 15V48C284 51.3138 281.314 54 278 54H260V57H266V63ZM224 15V48H278V15H224Z" fill="#EC1654"/>
<path d="M51 69H21C17.6863 69 15 66.3138 15 63V8.739C15.1398 5.52765 17.7856 2.99697 21 3H51C54.3138 3 57 5.68629 57 9V63C57 66.3138 54.3138 69 51 69ZM21 9V63H51V9H45C45 12.3137 42.3138 15 39 15H33C29.6863 15 27 12.3137 27 9H21Z" fill="#EC1654"/>
<path d="M138 46L134 42L138 38V41H148V37H150V42C150 42.5523 149.552 43 149 43H138V46ZM138 35H136V30C136 29.4477 136.448 29 137 29H148V26L152 30L148 34V31H138V35Z" fill="white"/>
<line x1="91.5" y1="35.5" x2="120.5" y2="35.5" stroke="white" stroke-linecap="round" stroke-dasharray="3 3"/>
<path d="M86.5 36L91.5 41V31L86.5 36Z" fill="white"/>
<line x1="165.5" y1="35.5" x2="194.5" y2="35.5" stroke="white" stroke-linecap="round" stroke-dasharray="3 3"/>
<path d="M200.5 36L195.5 31V41L200.5 36Z" fill="white"/>
</svg>
