<svg width="28" height="24" viewBox="0 0 28 24" fill="none" xmlns="http://www.w3.org/2000/svg">
<path d="M13.9999 24H13.9319C13.7333 23.9851 13.5443 23.9081 13.3919 23.78C13.3501 23.7445 13.3118 23.7052 13.2773 23.6627L0.890544 8.89733C0.793957 8.78696 0.725757 8.65469 0.691877 8.512C0.691877 8.49467 0.683877 8.47733 0.679877 8.46C0.642104 8.23664 0.68969 8.00724 0.81321 7.81733L0.838543 7.78L5.67854 0.933333C5.69588 0.906667 5.71321 0.882667 5.73321 0.861333C5.87478 0.693093 6.07122 0.58024 6.28788 0.542667C6.32496 0.537013 6.36237 0.533893 6.39988 0.533333L13.9333 0H13.9999H14.0653L21.5999 0.533333C21.6415 0.535693 21.683 0.54104 21.7239 0.549333C21.9617 0.593587 22.1729 0.728387 22.3133 0.925333L27.1626 7.784C27.1726 7.79729 27.1819 7.81108 27.1906 7.82533C27.3015 7.99532 27.3518 8.19784 27.3333 8.4C27.3275 8.45181 27.3178 8.50309 27.3039 8.55333C27.2674 8.68116 27.2027 8.79917 27.1146 8.89867L14.7239 23.6613C14.7033 23.6872 14.681 23.7117 14.6573 23.7347C14.5794 23.8103 14.4891 23.8721 14.3906 23.9173C14.3097 23.9539 14.2238 23.9785 14.1359 23.9907C14.0909 23.9969 14.0454 24 13.9999 24ZM8.59454 9.21467L13.9999 20.884L19.4053 9.21467H8.59454ZM21.4479 9.21467L17.7653 17.1653L24.4319 9.21467H21.4479ZM3.56388 9.21467L10.2305 17.1653L6.55188 9.21467H3.56388ZM22.2239 3.992L21.8773 7.39333H24.6266L22.2239 3.992ZM13.9999 2.492L9.82921 7.39333H18.1706L13.9999 2.492ZM5.77588 3.992L3.37321 7.39333H6.12254L5.77588 3.992ZM15.9693 1.96133L20.0679 6.77867L20.5333 2.28133L15.9693 1.96133ZM12.0279 1.96133L7.46654 2.28133L7.92654 6.77867L12.0279 1.96133Z" fill="white"/>
</svg>
