<svg width="20" height="20" viewBox="0 0 20 20" fill="none" xmlns="http://www.w3.org/2000/svg">
<path d="M16.6625 5.57334C17.4095 5.12675 17.9685 4.42354 18.235 3.595C17.5331 4.0115 16.765 4.3049 15.9642 4.4625C14.8538 3.28795 13.0946 3.0021 11.6695 3.76471C10.2444 4.52732 9.50624 6.14958 9.86749 7.725C6.99218 7.58064 4.31331 6.22243 2.49751 3.98834C1.54988 5.62285 2.03414 7.71232 3.60418 8.76334C3.03644 8.74509 2.48128 8.59135 1.98501 8.315C1.98501 8.33 1.98501 8.34501 1.98501 8.36001C1.98534 10.0626 3.18532 11.5293 4.85418 11.8667C4.32756 12.0099 3.77518 12.031 3.23918 11.9283C3.70851 13.3844 5.05047 14.3819 6.58001 14.4117C5.3132 15.4059 3.74874 15.9452 2.13835 15.9425C1.8529 15.9429 1.56769 15.9265 1.28418 15.8933C2.9195 16.9442 4.82282 17.5019 6.76668 17.5C9.47108 17.5186 12.07 16.4524 13.9822 14.54C15.8945 12.6276 16.9605 10.0285 16.9417 7.32417C16.9417 7.16917 16.9381 7.015 16.9308 6.86167C17.6312 6.3555 18.2357 5.72846 18.7158 5.01C18.0633 5.29922 17.3712 5.4891 16.6625 5.57334Z" fill="white"/>
</svg>
