<svg width="28" height="22" viewBox="0 0 28 22" fill="none" xmlns="http://www.w3.org/2000/svg">
<path d="M24.6666 21.6666H3.33329C1.86053 21.6666 0.666626 20.4728 0.666626 19V2.99998C0.666626 1.52722 1.86053 0.333313 3.33329 0.333313H24.6666C26.1394 0.333313 27.3333 1.52722 27.3333 2.99998V19C27.3333 20.4728 26.1394 21.6666 24.6666 21.6666ZM3.33329 2.99998V19H24.6666V2.99998H3.33329ZM18.6666 16.3333C16.8257 16.3333 15.3333 14.8409 15.3333 13C15.3333 11.159 16.8257 9.66665 18.6666 9.66665C20.5076 9.66665 22 11.159 22 13C22 13.884 21.6488 14.7318 21.0237 15.357C20.3985 15.9821 19.5506 16.3333 18.6666 16.3333ZM13.3333 16.3333C11.4924 16.3333 9.99996 14.8409 9.99996 13C9.99996 11.159 11.4924 9.66665 13.3333 9.66665C14.057 9.66718 14.7602 9.90731 15.3333 10.3493C14.495 10.9721 14.0008 11.9549 14.0008 12.9993C14.0008 14.0437 14.495 15.0265 15.3333 15.6493C14.7604 16.0918 14.0572 16.3324 13.3333 16.3333Z" fill="white"/>
</svg>
