<svg width="32" height="32" viewBox="0 0 32 32" fill="none" xmlns="http://www.w3.org/2000/svg">
<path d="M16 29.3334C8.63616 29.3334 2.66663 23.3638 2.66663 16C2.66663 8.63622 8.63616 2.66669 16 2.66669C23.3637 2.66669 29.3333 8.63622 29.3333 16C29.3252 23.3604 23.3604 29.3252 16 29.3334ZM5.33329 16.2294C5.39639 22.0976 10.1881 26.8127 16.0566 26.7814C21.9253 26.7496 26.666 21.9834 26.666 16.1147C26.666 10.246 21.9253 5.47971 16.0566 5.44802C10.1881 5.41663 5.39639 10.1317 5.33329 16V16.2294ZM18.6666 22.6667H14.6666V17.3334H13.3333V14.6667H17.3333V20H18.6666V22.6667ZM17.3333 12H14.6666V9.33335H17.3333V12Z" fill="#F74242"/>
</svg>
