<svg width="32" height="32" viewBox="0 0 32 32" fill="none" xmlns="http://www.w3.org/2000/svg">
<path d="M16 29.3333C8.6362 29.3333 2.66666 23.3637 2.66666 16C2.66666 8.63619 8.6362 2.66666 16 2.66666C23.3637 2.66666 29.3333 8.63619 29.3333 16C29.3252 23.3604 23.3604 29.3252 16 29.3333ZM5.33333 16.2293C5.39642 22.0976 10.1881 26.8127 16.0567 26.7813C21.9253 26.7496 26.666 21.9833 26.666 16.1147C26.666 10.246 21.9253 5.47968 16.0567 5.44799C10.1881 5.4166 5.39642 10.1317 5.33333 16V16.2293ZM18.6667 22.6667H14.6667V17.3333H13.3333V14.6667H17.3333V20H18.6667V22.6667ZM17.3333 12H14.6667V9.33332H17.3333V12Z" fill="#F74242"/>
</svg>
