<svg width="32" height="32" viewBox="0 0 32 32" fill="none" xmlns="http://www.w3.org/2000/svg">
<path d="M28.3545 27.9973H3.64384C3.1675 27.9973 2.72735 27.7432 2.48918 27.3307C2.251 26.9181 2.251 26.4099 2.48918 25.9973L14.8439 4.66399C15.0823 4.25214 15.522 3.99854 15.9979 3.99854C16.4737 3.99854 16.9135 4.25214 17.1519 4.66399L29.5065 25.9973C29.7445 26.4096 29.7447 26.9176 29.5068 27.33C29.2691 27.7425 28.8293 27.9968 28.3532 27.9973H28.3545ZM15.9999 7.99732L5.95851 25.3307H26.0439L15.9999 7.99732ZM17.3265 19.9987H14.6599V13.3307H17.3265V19.9987Z" fill="#F98E10"/>
<path d="M14.6665 21.3333H17.3332V24H14.6665V21.3333Z" fill="#F98E10"/>
</svg>
