<svg width="20" height="20" viewBox="0 0 20 20" fill="none" xmlns="http://www.w3.org/2000/svg">
<path d="M10.005 15.8433H9.9883C9.93663 15.8433 4.76746 15.8333 3.4633 15.4792C2.74615 15.286 2.18609 14.7256 1.9933 14.0083C1.75878 12.6853 1.64554 11.3436 1.65496 9.99999C1.6489 8.65416 1.76522 7.31058 2.00246 5.98582C2.20055 5.26791 2.75815 4.70495 3.47413 4.49999C4.74246 4.16666 9.76913 4.16666 9.98246 4.16666H9.99996C10.0525 4.16666 15.235 4.17666 16.5258 4.53082C17.2415 4.725 17.8004 5.28424 17.9941 5.99999C18.2361 7.32794 18.3497 8.67607 18.3333 10.0258C18.3391 11.37 18.2225 12.7119 17.985 14.035C17.7897 14.7513 17.2293 15.3105 16.5125 15.5042C15.2458 15.84 10.2183 15.8433 10.005 15.8433ZM8.33829 7.50416L8.33413 12.5042L12.6775 10.0042L8.33829 7.50416Z" fill="white"/>
</svg>
