<?xml version="1.0" encoding="utf-8"?>
<!-- Generator: Adobe Illustrator 25.2.2, SVG Export Plug-In . SVG Version: 6.00 Build 0)  -->
<svg version="1.1" id="Layer_1" xmlns="http://www.w3.org/2000/svg" xmlns:xlink="http://www.w3.org/1999/xlink" x="0px" y="0px"
	 viewBox="0 0 1000 300" style="enable-background:new 0 0 1000 300;" xml:space="preserve">
<style type="text/css">
	.st0{fill:#4B4A49;}
	.st1{fill:#EC1654;}
	.st2{fill:#FFFFFF;}
</style>
<g>
	<g>
		<path class="st2" d="M259.35,155.32c3.62-3.84,9.07-5.79,16.2-5.79h9.95l3.84-18.23H271.5c-6.7,0-12.63,0.45-17.64,1.33
			c-4.91,0.87-9.19,2.49-12.74,4.84c-3.52,2.33-6.49,5.6-8.83,9.71c-2.38,4.16-4.27,9.59-5.64,16.15v0l-9.58,45.02h26.88l7.89-36.83
			C253.28,164.52,255.81,159.07,259.35,155.32z"/>
		<path class="st2" d="M290.89,186.62c0,6.79,2.17,11.98,6.63,15.87c4.44,3.88,10.48,5.85,17.94,5.85h38.11
			c5.01,0,9.15-1.18,12.32-3.51c3.13-2.31,5.34-6.35,6.57-12.02l13.04-61.51h-26.88l-11.04,51.83c-0.57,2.6-1.44,4.37-2.66,5.41
			c-1.24,1.06-3.12,1.57-5.75,1.57h-4.8c-5.11,0-8.78-0.83-11.21-2.55c-2.54-1.78-3.82-4.77-3.82-8.88c0-0.97,0.08-2.02,0.24-3.1
			c0.15-1.06,0.33-2.19,0.53-3.4l8.69-40.87h-26.88l-10.3,48.53C291.13,182.03,290.89,184.31,290.89,186.62z"/>
		<path class="st2" d="M385.85,197.12c0,3.21,0.97,5.84,2.98,8.02c1.95,2.12,5.02,3.2,9.14,3.2h35.11c6.95,0,12.83-0.76,17.47-2.26
			c4.59-1.48,8.44-3.73,11.44-6.68c3.01-2.96,5.41-6.7,7.14-11.12c1.76-4.5,3.2-9.77,4.28-15.68c0.49-2.37,0.81-4.66,0.96-6.84
			c0.15-2.21,0.22-4.38,0.22-6.44c0-4.16-0.54-8-1.59-11.41c-1.04-3.37-2.67-6.32-4.85-8.78c-2.17-2.44-5.01-4.38-8.46-5.75
			c-3.49-1.39-7.75-2.09-12.67-2.09H426.3l5.4-25.5h-26.88l-18.54,87.53C386,194.64,385.85,195.91,385.85,197.12z M415.81,180.83
			l0-0.01l6.51-30.99h14.51c3.86,0,6.54,1.27,7.97,3.77c1.3,2.28,1.96,4.96,1.96,7.96c0,1.43-0.1,3-0.31,4.65
			c-0.2,1.61-0.4,3.08-0.61,4.39c-0.52,2.51-1.17,4.88-1.93,7.11c-0.79,2.31-1.83,4.36-3.1,6.1c-1.31,1.8-2.99,3.26-4.99,4.34
			c-2.03,1.09-4.57,1.65-7.56,1.65h-5.4c-2.54,0-4.34-0.32-5.5-0.99c-0.93-0.54-2.04-1.69-2.04-4.14
			C415.34,183.68,415.49,182.42,415.81,180.83z"/>
		<polygon class="st2" points="550.96,131.3 519.23,185.99 507.99,131.3 482.08,131.3 502.08,209.83 484.41,233.99 512.22,233.99 
			578.88,131.3 		"/>
		<path class="st2" d="M607.25,131.3c-7.2,0-12.75,1.43-16.51,4.25c-3.74,2.8-6.41,7.86-7.93,15.02c-0.48,2.39-0.73,4.43-0.73,6.04
			c0,2.45,0.33,4.6,0.98,6.41c0.63,1.77,1.6,3.34,2.87,4.66c1.32,1.36,2.96,2.6,4.89,3.68c1.98,1.11,4.32,2.17,6.95,3.15l14.56,5.55
			c0.79,0.29,1.7,0.61,2.73,0.96c1.08,0.36,2.11,0.75,3.08,1.15c1.06,0.45,1.98,1,2.72,1.62c0.94,0.81,1.41,1.7,1.41,2.67
			c0,1.36-0.71,2.34-1.95,2.69c-0.79,0.23-1.51,0.35-2.13,0.35h-49.19l-11.47,18.83h68.16c3.6,0,6.83-0.29,9.57-0.88
			c2.66-0.56,4.97-1.55,6.88-2.94c1.89-1.38,3.48-3.26,4.74-5.59c1.29-2.38,2.33-5.44,3.11-9.12c0.48-2.41,0.73-4.44,0.73-6.05
			c0-2.82-0.42-5.23-1.25-7.16c-0.83-1.94-2.03-3.67-3.55-5.15c-1.55-1.5-3.47-2.85-5.7-3.99c-2.32-1.18-4.94-2.38-7.79-3.56
			l-17.24-6.74c-2.26-0.89-3.94-1.5-5.02-1.85c-1.62-0.51-2.51-1.7-2.51-3.35c0-0.87,0.47-1.6,1.29-2.01
			c0.51-0.26,1.14-0.44,1.85-0.56c0.67-0.11,1.31-0.17,1.93-0.17h43.48l3.82-17.93H607.25z"/>
		<path class="st2" d="M732.02,162.49c0.05,0.48,0.12,1,0.22,1.57l3.01,34.76c0.09,1.27,0.41,2.55,0.96,3.82
			c0.52,1.21,1.4,2.31,2.63,3.26c1.26,0.99,3.01,1.8,5.19,2.41c2.24,0.62,5.13,0.93,8.6,0.93c3.55,0,6.55-0.38,8.93-1.14
			c2.34-0.75,4.38-1.81,6.05-3.16c1.69-1.36,3.14-2.96,4.32-4.74c1.21-1.84,2.37-3.91,3.44-6.16l30.93-62.74h-26.34l-21.42,45.05
			c-0.19,0.49-0.5,1.09-0.89,1.7c-0.74,1.16-1.59,1.4-2.17,1.4c-0.79,0-1.72-0.48-1.97-1.84c-0.12-0.63-0.17-1.18-0.17-1.64
			l-3.6-38.29c-0.08-0.75-0.3-1.55-0.66-2.42c-0.31-0.73-0.96-1.47-1.92-2.18c-1.02-0.75-2.48-1.4-4.32-1.9
			c-1.9-0.52-4.41-0.78-7.47-0.78c-3.07,0-5.64,0.27-7.64,0.79c-1.96,0.51-3.59,1.17-4.83,1.95c-1.22,0.77-2.17,1.58-2.84,2.42
			c-0.68,0.87-1.21,1.71-1.57,2.51l-19.83,38.47c-0.2,0.4-0.46,0.88-0.76,1.45c-0.66,1.21-1.53,1.47-2.14,1.47
			c-0.36,0-1.58-0.13-2.02-1.74c-0.17-0.64-0.27-1.27-0.27-1.87l-2.19-44.55h-24.2l4.41,63.19c0.09,2.21,0.41,4.24,0.93,6.05
			c0.49,1.71,1.34,3.24,2.51,4.54c1.15,1.29,2.8,2.31,4.89,3.03c2.16,0.75,5.06,1.13,8.6,1.13c3.47,0,6.44-0.32,8.84-0.94
			c2.37-0.61,4.37-1.45,5.94-2.47c1.57-1.02,2.85-2.18,3.8-3.45c1.01-1.34,1.85-2.69,2.51-4.01l18.83-36.31
			c0.58-1.18,1.37-1.43,1.93-1.43C731.03,160.63,731.88,161.12,732.02,162.49z"/>
		<path class="st2" d="M799.74,180.13c-0.28,1.51-0.53,3.27-0.73,5.19c-0.2,1.89-0.29,3.54-0.29,4.9c0,5.58,1.37,10.06,4.07,13.31
			c2.64,3.19,6.86,4.81,12.55,4.81h46.21c5.66,0,10-1.33,12.9-3.96c2.94-2.65,4.95-6.55,6-11.56l7.65-36.01
			c0.19-0.95,0.34-1.95,0.43-3.01c0.1-1.06,0.14-2.02,0.14-2.89c0-5.83-1.8-10.61-5.34-14.21c-3.54-3.59-9.21-5.41-16.83-5.41
			h-50.31l-3.82,17.93h39.88c7.22,0,8.74,3.85,8.74,7.09c0,0.87-0.06,1.6-0.18,2.19l-0.5,2.5h-37.32c-3.98,0-7.36,0.34-10.05,1.02
			c-2.6,0.65-4.75,1.7-6.4,3.11c-1.64,1.42-2.99,3.36-4.02,5.77C801.45,173.4,800.52,176.51,799.74,180.13z M826.58,182.93
			c0.48-2.18,1.54-3.72,3.17-4.6c1.48-0.8,3.09-1.2,4.79-1.2h22.41l-1.71,7.22c-0.56,2.57-1.43,4.34-2.65,5.38
			c-1.24,1.06-3.12,1.57-5.75,1.57h-15.15c-1.8,0-3.19-0.61-4.13-1.83c-0.87-1.12-1.31-2.38-1.31-3.76
			C826.25,184.94,826.36,184,826.58,182.93z"/>
		<path class="st2" d="M940.9,208.34c6.95,0,12.83-0.76,17.47-2.26c4.59-1.48,8.44-3.73,11.44-6.68c3.01-2.96,5.44-6.7,7.22-11.13
			c1.81-4.5,3.28-9.77,4.36-15.66c0.88-4.69,1.33-9.16,1.33-13.28c0-4.15-0.54-8-1.59-11.41c-1.04-3.36-2.72-6.31-4.98-8.76
			c-2.27-2.45-5.17-4.39-8.63-5.77c-3.49-1.39-7.75-2.09-12.67-2.09h-32.11c-5.65,0-9.97,1.33-12.82,3.95
			c-2.89,2.66-4.89,6.55-5.93,11.57l-18.44,87.03h26.73l5.4-25.5H940.9z M928.44,158.31c0.66-3.3,1.68-5.49,3.12-6.69
			c1.45-1.2,3.77-1.79,7.09-1.79h5.4c4.21,0,7.12,1.11,8.66,3.3c1.44,2.05,2.18,4.64,2.18,7.68c0,1.42-0.1,3.13-0.31,5.22
			c-0.21,2.05-0.47,3.9-0.77,5.51c-0.42,1.99-1.02,4.04-1.78,6.12c-0.79,2.15-1.86,4.13-3.18,5.87c-1.34,1.77-2.99,3.26-4.92,4.43
			c-1.98,1.22-4.42,1.83-7.24,1.83h-15.03L928.44,158.31z"/>
	</g>
	<g>
		<g>
			<path class="st1" d="M160.72,93.41c2.31,0,3.38-1.7,2.38-3.78l-9.55-19.84c-1-2.08-3.71-3.78-6.02-3.78H79.68
				c-2.31,0-5.02,1.7-6.02,3.78L64.1,89.63c-1,2.08,0.07,3.78,2.38,3.78H160.72z"/>
		</g>
		<g>
			<path class="st1" d="M206.48,93.41c2.31,0,2.96-1.43,1.45-3.18l-18.22-21.05c-1.51-1.75-4.64-3.18-6.95-3.18h-17.75
				c-2.31,0-3.38,1.7-2.38,3.78l9.57,19.84c1,2.08,3.71,3.78,6.02,3.78H206.48z"/>
		</g>
		<g>
			<path class="st1" d="M63.58,69.79c1-2.08-0.07-3.78-2.37-3.78H43.45c-2.31,0-5.44,1.43-6.95,3.18L18.28,90.23
				c-1.51,1.75-0.86,3.18,1.45,3.18h28.25c2.31,0,5.02-1.7,6.02-3.78L63.58,69.79z"/>
		</g>
		<g>
			<path class="st1" d="M19.58,101.11c-2.31,0-3,1.46-1.53,3.24l77.61,94.37c1.47,1.78,1.88,1.53,0.92-0.57l-42.68-93.22
				c-0.96-2.1-3.64-3.82-5.95-3.82H19.58z"/>
		</g>
		<g>
			<path class="st1" d="M178.27,101.11c-2.31,0-4.99,1.72-5.95,3.82l-42.7,93.22c-0.96,2.1-0.55,2.36,0.92,0.57l77.63-94.37
				c1.47-1.78,0.78-3.24-1.53-3.24H178.27z"/>
		</g>
		<g>
			<path class="st1" d="M115.24,132.4c-2.22-0.64-2.23-1.72-0.03-2.41l38.69-12.11c2.2-0.69,4.79-2.97,5.76-5.07l3.61-7.88
				c0.96-2.1-0.14-3.82-2.45-3.82H66.41c-2.31,0-3.41,1.72-2.45,3.82l15.81,34.52c0.96,2.1,3.59,4.25,5.84,4.77l37.42,8.75
				c2.25,0.53,2.43,1.85,0.39,2.95l-25.27,13.6c-2.03,1.09-2.91,3.71-1.95,5.81l15.66,34.19c0.96,2.1,2.54,2.1,3.5,0l29.45-64.29
				c0.96-2.1-0.07-4.34-2.29-4.98L115.24,132.4z"/>
		</g>
	</g>
</g>
</svg>
